<mxfile host="app.diagrams.net" modified="2022-05-05T12:27:08.657Z" agent="5.0 (X11; Linux x86_64) AppleWebKit/537.36 (KHTML, like Gecko) Chrome/101.0.4951.41 Safari/537.36" etag="3fYa_slkat_N0ja81Wx-" version="18.0.0" type="github">
  <diagram name="Page-1" id="929967ad-93f9-6ef4-fab6-5d389245f69c">
    <mxGraphModel dx="961" dy="1126" grid="0" gridSize="10" guides="1" tooltips="1" connect="1" arrows="1" fold="1" page="0" pageScale="1.5" pageWidth="2336" pageHeight="1654" background="#E6E6E6" math="0" shadow="0">
      <root>
        <mxCell id="0" style=";html=1;" />
        <mxCell id="1" style=";html=1;" parent="0" />
        <mxCell id="1672d66443f91eb5-1" value="&lt;p style=&quot;margin: 0px ; margin-top: 4px ; margin-left: 10px ; text-align: left&quot;&gt;&lt;b&gt;group 3&lt;/b&gt;&lt;/p&gt;" style="html=1;strokeWidth=1;shape=mxgraph.sysml.package;html=1;overflow=fill;whiteSpace=wrap;fillColor=none;gradientColor=none;fontSize=12;align=center;labelX=327.64;" parent="1" vertex="1">
          <mxGeometry x="1144" y="-0.5" width="2019" height="1627" as="geometry" />
        </mxCell>
        <mxCell id="dxKCeIQAazDfLPVNPwqI-13" value="DodgeClear" style="swimlane;fontStyle=1;align=center;verticalAlign=top;childLayout=stackLayout;horizontal=1;startSize=26;horizontalStack=0;resizeParent=1;resizeParentMax=0;resizeLast=0;collapsible=1;marginBottom=0;labelBackgroundColor=none;fillColor=#fff2cc;strokeColor=#d6b656;shadow=0;sketch=0;gradientColor=none;swimlaneFillColor=default;" parent="1" vertex="1">
          <mxGeometry x="1340" y="1313" width="233" height="86" as="geometry" />
        </mxCell>
        <mxCell id="dxKCeIQAazDfLPVNPwqI-14" value=" " style="text;strokeColor=none;fillColor=none;align=left;verticalAlign=top;spacingLeft=4;spacingRight=4;overflow=hidden;rotatable=0;points=[[0,0.5],[1,0.5]];portConstraint=eastwest;" parent="dxKCeIQAazDfLPVNPwqI-13" vertex="1">
          <mxGeometry y="26" width="233" height="26" as="geometry" />
        </mxCell>
        <mxCell id="dxKCeIQAazDfLPVNPwqI-15" value="" style="line;strokeWidth=1;fillColor=none;align=left;verticalAlign=middle;spacingTop=-1;spacingLeft=3;spacingRight=3;rotatable=0;labelPosition=right;points=[];portConstraint=eastwest;" parent="dxKCeIQAazDfLPVNPwqI-13" vertex="1">
          <mxGeometry y="52" width="233" height="8" as="geometry" />
        </mxCell>
        <mxCell id="dxKCeIQAazDfLPVNPwqI-16" value=" " style="text;strokeColor=none;fillColor=none;align=left;verticalAlign=top;spacingLeft=4;spacingRight=4;overflow=hidden;rotatable=0;points=[[0,0.5],[1,0.5]];portConstraint=eastwest;" parent="dxKCeIQAazDfLPVNPwqI-13" vertex="1">
          <mxGeometry y="60" width="233" height="26" as="geometry" />
        </mxCell>
        <mxCell id="zp3tI751EjAqgCoOAfSL-209" value="&lt;p style=&quot;margin: 0px ; margin-top: 4px ; margin-left: 10px ; text-align: left&quot;&gt;&lt;b&gt;Deprecated&lt;/b&gt;&lt;/p&gt;" style="html=1;strokeWidth=1;shape=mxgraph.sysml.package;html=1;overflow=fill;whiteSpace=wrap;fillColor=none;gradientColor=none;fontSize=12;align=center;labelX=327.64;" parent="1" vertex="1">
          <mxGeometry x="1144" y="1667" width="2015" height="644" as="geometry" />
        </mxCell>
        <mxCell id="-0N7IOGXyZVaYshVuag8-17" value="agents" style="edgeStyle=orthogonalEdgeStyle;rounded=0;orthogonalLoop=1;jettySize=auto;html=1;entryX=0.5;entryY=0;entryDx=0;entryDy=0;endArrow=none;endFill=0;" parent="1" source="zp3tI751EjAqgCoOAfSL-103" target="-0N7IOGXyZVaYshVuag8-15" edge="1">
          <mxGeometry relative="1" as="geometry">
            <mxPoint x="2120" y="360" as="sourcePoint" />
          </mxGeometry>
        </mxCell>
        <mxCell id="-0N7IOGXyZVaYshVuag8-15" value="&lt;p style=&quot;margin: 0px ; margin-top: 4px ; text-align: center&quot;&gt;&lt;b&gt;Map&amp;lt;String, Agent&amp;gt;&lt;/b&gt;&lt;/p&gt;&lt;hr size=&quot;1&quot;&gt;&lt;div style=&quot;height: 2px&quot;&gt;&lt;/div&gt;" style="verticalAlign=top;align=left;overflow=fill;fontSize=12;fontFamily=Helvetica;html=1;" parent="1" vertex="1">
          <mxGeometry x="1796" y="260" width="140" height="60" as="geometry" />
        </mxCell>
        <mxCell id="-0N7IOGXyZVaYshVuag8-24" style="edgeStyle=orthogonalEdgeStyle;rounded=0;orthogonalLoop=1;jettySize=auto;html=1;startArrow=none;startFill=0;endArrow=none;endFill=0;" parent="1" source="zp3tI751EjAqgCoOAfSL-164" target="zp3tI751EjAqgCoOAfSL-61" edge="1">
          <mxGeometry relative="1" as="geometry">
            <mxPoint x="2564" y="360" as="sourcePoint" />
            <mxPoint x="2266" y="601" as="targetPoint" />
            <Array as="points">
              <mxPoint x="2584" y="468" />
            </Array>
          </mxGeometry>
        </mxCell>
        <mxCell id="-0N7IOGXyZVaYshVuag8-25" value="mailbox" style="edgeLabel;html=1;align=center;verticalAlign=middle;resizable=0;points=[];" parent="-0N7IOGXyZVaYshVuag8-24" vertex="1" connectable="0">
          <mxGeometry x="0.2697" y="-1" relative="1" as="geometry">
            <mxPoint x="24" y="-9" as="offset" />
          </mxGeometry>
        </mxCell>
        <mxCell id="-0N7IOGXyZVaYshVuag8-100" style="edgeStyle=orthogonalEdgeStyle;rounded=0;orthogonalLoop=1;jettySize=auto;html=1;startArrow=none;startFill=0;endArrow=none;endFill=0;" parent="1" source="zp3tI751EjAqgCoOAfSL-61" target="zp3tI751EjAqgCoOAfSL-151" edge="1">
          <mxGeometry relative="1" as="geometry">
            <Array as="points">
              <mxPoint x="2388" y="521" />
              <mxPoint x="2388" y="694" />
            </Array>
            <mxPoint x="2266" y="642" as="sourcePoint" />
            <mxPoint x="2557" y="642" as="targetPoint" />
          </mxGeometry>
        </mxCell>
        <mxCell id="-0N7IOGXyZVaYshVuag8-22" value="&lt;p style=&quot;margin: 0px ; margin-top: 4px ; text-align: center&quot;&gt;&lt;b&gt;&lt;i&gt;&amp;nbsp;&lt;/i&gt;SpecialAgent&lt;/b&gt;&lt;/p&gt;&lt;hr size=&quot;1&quot;&gt;&lt;div style=&quot;height: 2px&quot;&gt;&lt;br&gt;&lt;/div&gt;" style="verticalAlign=top;align=left;overflow=fill;fontSize=12;fontFamily=Helvetica;html=1;dashed=1;" parent="1" vertex="1">
          <mxGeometry x="2011" y="1799" width="246" height="140" as="geometry" />
        </mxCell>
        <mxCell id="-0N7IOGXyZVaYshVuag8-36" style="edgeStyle=orthogonalEdgeStyle;rounded=0;orthogonalLoop=1;jettySize=auto;html=1;startArrow=none;startFill=0;endArrow=none;endFill=0;" parent="1" source="-0N7IOGXyZVaYshVuag8-34" target="-0N7IOGXyZVaYshVuag8-35" edge="1">
          <mxGeometry relative="1" as="geometry" />
        </mxCell>
        <mxCell id="-0N7IOGXyZVaYshVuag8-34" value="Server" style="ellipse;shape=cloud;whiteSpace=wrap;html=1;" parent="1" vertex="1">
          <mxGeometry x="50" y="300" width="120" height="80" as="geometry" />
        </mxCell>
        <mxCell id="-0N7IOGXyZVaYshVuag8-53" style="edgeStyle=orthogonalEdgeStyle;rounded=0;orthogonalLoop=1;jettySize=auto;html=1;startArrow=none;startFill=0;endArrow=none;endFill=0;" parent="1" source="-0N7IOGXyZVaYshVuag8-35" edge="1">
          <mxGeometry relative="1" as="geometry">
            <mxPoint x="430.50000000000045" y="340" as="targetPoint" />
          </mxGeometry>
        </mxCell>
        <mxCell id="-0N7IOGXyZVaYshVuag8-35" value="JSON" style="html=1;" parent="1" vertex="1">
          <mxGeometry x="242" y="315" width="110" height="50" as="geometry" />
        </mxCell>
        <mxCell id="-0N7IOGXyZVaYshVuag8-39" style="edgeStyle=orthogonalEdgeStyle;rounded=0;orthogonalLoop=1;jettySize=auto;html=1;entryX=0.5;entryY=1;entryDx=0;entryDy=0;startArrow=none;startFill=0;endArrow=block;endFill=0;dashed=1;" parent="1" source="-0N7IOGXyZVaYshVuag8-37" target="-0N7IOGXyZVaYshVuag8-38" edge="1">
          <mxGeometry relative="1" as="geometry" />
        </mxCell>
        <mxCell id="-0N7IOGXyZVaYshVuag8-51" style="edgeStyle=orthogonalEdgeStyle;rounded=0;orthogonalLoop=1;jettySize=auto;html=1;startArrow=none;startFill=0;endArrow=none;endFill=0;" parent="1" source="-0N7IOGXyZVaYshVuag8-37" target="zp3tI751EjAqgCoOAfSL-103" edge="1">
          <mxGeometry relative="1" as="geometry">
            <mxPoint x="2050" y="330" as="targetPoint" />
            <Array as="points">
              <mxPoint x="1404" y="330" />
              <mxPoint x="1404" y="145" />
            </Array>
          </mxGeometry>
        </mxCell>
        <mxCell id="-0N7IOGXyZVaYshVuag8-37" value="&lt;p style=&quot;margin: 0px ; margin-top: 4px ; text-align: center&quot;&gt;&lt;b&gt;EnvironmentInterface&lt;/b&gt;&lt;/p&gt;&lt;hr size=&quot;1&quot;&gt;&lt;div style=&quot;height: 2px&quot;&gt;&lt;/div&gt;" style="verticalAlign=top;align=left;overflow=fill;fontSize=12;fontFamily=Helvetica;html=1;" parent="1" vertex="1">
          <mxGeometry x="687.5" y="300" width="140" height="60" as="geometry" />
        </mxCell>
        <mxCell id="-0N7IOGXyZVaYshVuag8-38" value="«interface»&lt;br&gt;&lt;b&gt;Runnable&lt;/b&gt;" style="html=1;" parent="1" vertex="1">
          <mxGeometry x="702.5" y="180" width="110" height="50" as="geometry" />
        </mxCell>
        <mxCell id="-0N7IOGXyZVaYshVuag8-46" style="edgeStyle=orthogonalEdgeStyle;rounded=0;orthogonalLoop=1;jettySize=auto;html=1;entryX=0.5;entryY=1;entryDx=0;entryDy=0;startArrow=none;startFill=0;endArrow=none;endFill=0;" parent="1" source="-0N7IOGXyZVaYshVuag8-47" target="-0N7IOGXyZVaYshVuag8-37" edge="1">
          <mxGeometry relative="1" as="geometry" />
        </mxCell>
        <mxCell id="-0N7IOGXyZVaYshVuag8-40" value="&lt;p style=&quot;margin: 0px ; margin-top: 4px ; text-align: center&quot;&gt;&lt;b&gt;Map&amp;lt;string, Entity&amp;gt;&lt;/b&gt;&lt;/p&gt;&lt;hr size=&quot;1&quot;&gt;&lt;div style=&quot;height: 2px&quot;&gt;&lt;/div&gt;" style="verticalAlign=top;align=left;overflow=fill;fontSize=12;fontFamily=Helvetica;html=1;" parent="1" vertex="1">
          <mxGeometry x="687.5" y="420" width="140" height="60" as="geometry" />
        </mxCell>
        <mxCell id="-0N7IOGXyZVaYshVuag8-43" style="edgeStyle=orthogonalEdgeStyle;rounded=0;orthogonalLoop=1;jettySize=auto;html=1;entryX=0;entryY=0.5;entryDx=0;entryDy=0;startArrow=none;startFill=0;endArrow=block;endFill=0;dashed=1;" parent="1" source="-0N7IOGXyZVaYshVuag8-42" target="-0N7IOGXyZVaYshVuag8-38" edge="1">
          <mxGeometry relative="1" as="geometry" />
        </mxCell>
        <mxCell id="-0N7IOGXyZVaYshVuag8-42" value="&lt;p style=&quot;margin: 0px ; margin-top: 4px ; text-align: center&quot;&gt;&lt;b&gt;Entity&lt;/b&gt;&lt;/p&gt;&lt;hr size=&quot;1&quot;&gt;&lt;div style=&quot;height: 2px&quot;&gt;&lt;/div&gt;" style="verticalAlign=top;align=left;overflow=fill;fontSize=12;fontFamily=Helvetica;html=1;" parent="1" vertex="1">
          <mxGeometry x="467.5" y="300" width="140" height="60" as="geometry" />
        </mxCell>
        <mxCell id="-0N7IOGXyZVaYshVuag8-47" value="entities" style="text;html=1;align=center;verticalAlign=middle;resizable=0;points=[];autosize=1;strokeColor=none;fillColor=none;" parent="1" vertex="1">
          <mxGeometry x="732.5" y="380" width="50" height="20" as="geometry" />
        </mxCell>
        <mxCell id="-0N7IOGXyZVaYshVuag8-48" value="" style="edgeStyle=orthogonalEdgeStyle;rounded=0;orthogonalLoop=1;jettySize=auto;html=1;entryX=0.5;entryY=1;entryDx=0;entryDy=0;startArrow=none;startFill=0;endArrow=none;endFill=0;" parent="1" source="-0N7IOGXyZVaYshVuag8-40" target="-0N7IOGXyZVaYshVuag8-47" edge="1">
          <mxGeometry relative="1" as="geometry">
            <mxPoint x="757.5" y="420" as="sourcePoint" />
            <mxPoint x="757.5" y="360" as="targetPoint" />
          </mxGeometry>
        </mxCell>
        <mxCell id="-0N7IOGXyZVaYshVuag8-54" value="&lt;p style=&quot;margin: 0px ; margin-top: 4px ; margin-left: 10px ; text-align: left&quot;&gt;&lt;b&gt;eis&lt;/b&gt;&lt;/p&gt;" style="html=1;strokeWidth=1;shape=mxgraph.sysml.package;html=1;overflow=fill;whiteSpace=wrap;fillColor=none;gradientColor=none;fontSize=12;align=center;labelX=327.64;" parent="1" vertex="1">
          <mxGeometry x="430.5" y="110" width="430" height="410" as="geometry" />
        </mxCell>
        <mxCell id="-0N7IOGXyZVaYshVuag8-68" value="- calculateBeliefs()&#xa;- validateIntention() : Validationresult&#xa;- sendAction()&#xa;- addDesire(d: Desire)&#xa;- addOwnDesires()&#xa;" style="text;strokeColor=none;fillColor=none;align=left;verticalAlign=top;spacingLeft=4;spacingRight=4;overflow=hidden;rotatable=0;points=[[0,0.5],[1,0.5]];portConstraint=eastwest;dashed=1;" parent="1" vertex="1">
          <mxGeometry x="2028" y="1834" width="218" height="89" as="geometry" />
        </mxCell>
        <mxCell id="-0N7IOGXyZVaYshVuag8-70" value="Scheduler updates all Agents in step Method and asks all Agents for next step" style="shape=note2;boundedLbl=1;whiteSpace=wrap;html=1;size=25;verticalAlign=top;align=center;" parent="1" vertex="1">
          <mxGeometry x="2292" y="30" width="155" height="80" as="geometry" />
        </mxCell>
        <mxCell id="-0N7IOGXyZVaYshVuag8-84" value="Desires are filled by Layered Architecture&lt;br&gt;- selfish desires&lt;br&gt;- by supervisor&lt;br&gt;- by general rules if currently not needed" style="shape=note2;boundedLbl=1;whiteSpace=wrap;html=1;size=25;verticalAlign=top;align=center;" parent="1" vertex="1">
          <mxGeometry x="1327" y="716.5" width="178.5" height="140" as="geometry" />
        </mxCell>
        <mxCell id="-0N7IOGXyZVaYshVuag8-93" value="Problem: How to multithread agents!" style="shape=note2;boundedLbl=1;whiteSpace=wrap;html=1;size=25;verticalAlign=top;align=center;" parent="1" vertex="1">
          <mxGeometry x="2297" y="129" width="150" height="70" as="geometry" />
        </mxCell>
        <mxCell id="-0N7IOGXyZVaYshVuag8-95" value="Logic for Decision making&lt;br&gt;in Agent or own Class?" style="shape=note2;boundedLbl=1;whiteSpace=wrap;html=1;size=25;verticalAlign=top;align=center;" parent="1" vertex="1">
          <mxGeometry x="1707" y="734" width="190" height="80" as="geometry" />
        </mxCell>
        <mxCell id="-0N7IOGXyZVaYshVuag8-101" value="GroupSupervisor works in phases and waits in every phase until all agents.&lt;br&gt;&lt;br&gt;1. send beliefs&lt;br&gt;2. receive desires&lt;br&gt;3. validate intention" style="shape=note2;boundedLbl=1;whiteSpace=wrap;html=1;size=25;verticalAlign=top;align=center;" parent="1" vertex="1">
          <mxGeometry x="2532" y="1799" width="178.5" height="140" as="geometry" />
        </mxCell>
        <mxCell id="zp3tI751EjAqgCoOAfSL-7" value="Belief" style="swimlane;fontStyle=1;align=center;verticalAlign=top;childLayout=stackLayout;horizontal=1;startSize=26;horizontalStack=0;resizeParent=1;resizeParentMax=0;resizeLast=0;collapsible=1;marginBottom=0;labelBackgroundColor=none;fillColor=#fff2cc;strokeColor=#d6b656;shadow=0;sketch=0;gradientColor=none;swimlaneFillColor=default;" parent="1" vertex="1">
          <mxGeometry x="1690" y="537" width="233" height="168" as="geometry" />
        </mxCell>
        <mxCell id="zp3tI751EjAqgCoOAfSL-8" value="- name: String" style="text;strokeColor=none;fillColor=none;align=left;verticalAlign=top;spacingLeft=4;spacingRight=4;overflow=hidden;rotatable=0;points=[[0,0.5],[1,0.5]];portConstraint=eastwest;autosize=1;" parent="zp3tI751EjAqgCoOAfSL-7" vertex="1">
          <mxGeometry y="26" width="233" height="18" as="geometry" />
        </mxCell>
        <mxCell id="zp3tI751EjAqgCoOAfSL-14" value="- teamSize: Integer" style="text;strokeColor=none;fillColor=none;align=left;verticalAlign=top;spacingLeft=4;spacingRight=4;overflow=hidden;rotatable=0;points=[[0,0.5],[1,0.5]];portConstraint=eastwest;autosize=1;" parent="zp3tI751EjAqgCoOAfSL-7" vertex="1">
          <mxGeometry y="44" width="233" height="18" as="geometry" />
        </mxCell>
        <mxCell id="zp3tI751EjAqgCoOAfSL-16" value="- steps: Integer" style="text;strokeColor=none;fillColor=none;align=left;verticalAlign=top;spacingLeft=4;spacingRight=4;overflow=hidden;rotatable=0;points=[[0,0.5],[1,0.5]];portConstraint=eastwest;autosize=1;" parent="zp3tI751EjAqgCoOAfSL-7" vertex="1">
          <mxGeometry y="62" width="233" height="18" as="geometry" />
        </mxCell>
        <mxCell id="zp3tI751EjAqgCoOAfSL-18" value="- lastAction: String" style="text;strokeColor=none;fillColor=none;align=left;verticalAlign=top;spacingLeft=4;spacingRight=4;overflow=hidden;rotatable=0;points=[[0,0.5],[1,0.5]];portConstraint=eastwest;autosize=1;" parent="zp3tI751EjAqgCoOAfSL-7" vertex="1">
          <mxGeometry y="80" width="233" height="18" as="geometry" />
        </mxCell>
        <mxCell id="zp3tI751EjAqgCoOAfSL-17" value="..." style="text;strokeColor=none;fillColor=none;align=left;verticalAlign=top;spacingLeft=4;spacingRight=4;overflow=hidden;rotatable=0;points=[[0,0.5],[1,0.5]];portConstraint=eastwest;autosize=1;" parent="zp3tI751EjAqgCoOAfSL-7" vertex="1">
          <mxGeometry y="98" width="233" height="18" as="geometry" />
        </mxCell>
        <mxCell id="zp3tI751EjAqgCoOAfSL-9" value="" style="line;strokeWidth=1;fillColor=none;align=left;verticalAlign=middle;spacingTop=-1;spacingLeft=3;spacingRight=3;rotatable=0;labelPosition=right;points=[];portConstraint=eastwest;" parent="zp3tI751EjAqgCoOAfSL-7" vertex="1">
          <mxGeometry y="116" width="233" height="8" as="geometry" />
        </mxCell>
        <mxCell id="zp3tI751EjAqgCoOAfSL-10" value="+ update(List&lt;Percepts&gt;)" style="text;strokeColor=none;fillColor=none;align=left;verticalAlign=top;spacingLeft=4;spacingRight=4;overflow=hidden;rotatable=0;points=[[0,0.5],[1,0.5]];portConstraint=eastwest;autosize=1;" parent="zp3tI751EjAqgCoOAfSL-7" vertex="1">
          <mxGeometry y="124" width="233" height="18" as="geometry" />
        </mxCell>
        <mxCell id="zp3tI751EjAqgCoOAfSL-19" value="+ Getter for all fields" style="text;strokeColor=none;fillColor=none;align=left;verticalAlign=top;spacingLeft=4;spacingRight=4;overflow=hidden;rotatable=0;points=[[0,0.5],[1,0.5]];portConstraint=eastwest;autosize=1;" parent="zp3tI751EjAqgCoOAfSL-7" vertex="1">
          <mxGeometry y="142" width="233" height="26" as="geometry" />
        </mxCell>
        <mxCell id="zp3tI751EjAqgCoOAfSL-75" style="edgeStyle=orthogonalEdgeStyle;rounded=0;orthogonalLoop=1;jettySize=auto;html=1;fontSize=9;endArrow=none;endFill=0;entryX=0.75;entryY=0;entryDx=0;entryDy=0;exitX=0.25;exitY=0;exitDx=0;exitDy=0;" parent="1" source="zp3tI751EjAqgCoOAfSL-24" target="dxKCeIQAazDfLPVNPwqI-51" edge="1">
          <mxGeometry relative="1" as="geometry">
            <Array as="points">
              <mxPoint x="2051" y="922" />
              <mxPoint x="1794" y="922" />
            </Array>
            <mxPoint x="1991" y="996" as="sourcePoint" />
          </mxGeometry>
        </mxCell>
        <mxCell id="zp3tI751EjAqgCoOAfSL-24" value="BdiAgent" style="swimlane;fontStyle=3;align=center;verticalAlign=top;childLayout=stackLayout;horizontal=1;startSize=26;horizontalStack=0;resizeParent=1;resizeParentMax=0;resizeLast=0;collapsible=1;marginBottom=0;labelBackgroundColor=none;fillColor=#fff2cc;strokeColor=#d6b656;shadow=0;sketch=0;gradientColor=none;swimlaneFillColor=default;" parent="1" vertex="1">
          <mxGeometry x="1981" y="828" width="278" height="130" as="geometry" />
        </mxCell>
        <mxCell id="zp3tI751EjAqgCoOAfSL-32" value="- desires : List&lt;Goal&gt;&#xa;- intention : Intention" style="text;strokeColor=none;fillColor=none;align=left;verticalAlign=top;spacingLeft=4;spacingRight=4;overflow=hidden;rotatable=0;points=[[0,0.5],[1,0.5]];portConstraint=eastwest;resizable=1;autosize=1;connectable=1;" parent="zp3tI751EjAqgCoOAfSL-24" vertex="1">
          <mxGeometry y="26" width="278" height="32" as="geometry" />
        </mxCell>
        <mxCell id="zp3tI751EjAqgCoOAfSL-30" value="" style="line;strokeWidth=1;fillColor=none;align=left;verticalAlign=middle;spacingTop=-1;spacingLeft=3;spacingRight=3;rotatable=0;labelPosition=right;points=[];portConstraint=eastwest;" parent="zp3tI751EjAqgCoOAfSL-24" vertex="1">
          <mxGeometry y="58" width="278" height="8" as="geometry" />
        </mxCell>
        <mxCell id="zp3tI751EjAqgCoOAfSL-78" value="+ BdiAgent(name : String, mailbox : MailService)&#xa;+ addGoal(Goal)&#xa;+ getIntension() : Goal&#xa;+ setIntension(Goal)&#xa;)" style="text;strokeColor=none;fillColor=none;align=left;verticalAlign=top;spacingLeft=4;spacingRight=4;overflow=hidden;rotatable=0;points=[[0,0.5],[1,0.5]];portConstraint=eastwest;autosize=1;" parent="zp3tI751EjAqgCoOAfSL-24" vertex="1">
          <mxGeometry y="66" width="278" height="64" as="geometry" />
        </mxCell>
        <mxCell id="zp3tI751EjAqgCoOAfSL-33" value="BdiAgentV1" style="swimlane;fontStyle=1;align=center;verticalAlign=top;childLayout=stackLayout;horizontal=1;startSize=26;horizontalStack=0;resizeParent=1;resizeParentMax=0;resizeLast=0;collapsible=1;marginBottom=0;labelBackgroundColor=none;fillColor=#fff2cc;strokeColor=#d6b656;shadow=0;sketch=0;gradientColor=none;swimlaneFillColor=default;" parent="1" vertex="1">
          <mxGeometry x="1988" y="1037" width="295" height="287" as="geometry" />
        </mxCell>
        <mxCell id="zp3tI751EjAqgCoOAfSL-34" value="- queue :  Queue&lt;BdiAgentV1.PerceptMessage&gt;&#xa;- supervisor : ISupervisor" style="text;strokeColor=none;fillColor=none;align=left;verticalAlign=top;spacingLeft=4;spacingRight=4;overflow=hidden;rotatable=0;points=[[0,0.5],[1,0.5]];portConstraint=eastwest;" parent="zp3tI751EjAqgCoOAfSL-33" vertex="1">
          <mxGeometry y="26" width="295" height="37" as="geometry" />
        </mxCell>
        <mxCell id="zp3tI751EjAqgCoOAfSL-39" value="" style="line;strokeWidth=1;fillColor=none;align=left;verticalAlign=middle;spacingTop=-1;spacingLeft=3;spacingRight=3;rotatable=0;labelPosition=right;points=[];portConstraint=eastwest;" parent="zp3tI751EjAqgCoOAfSL-33" vertex="1">
          <mxGeometry y="63" width="295" height="8" as="geometry" />
        </mxCell>
        <mxCell id="zp3tI751EjAqgCoOAfSL-92" value="+ BdiAgentV1(name : String,&#xa;mailbox : MailService), eisSender : EisSender)" style="text;strokeColor=none;fillColor=none;align=left;verticalAlign=top;spacingLeft=4;spacingRight=4;overflow=hidden;rotatable=0;points=[[0,0.5],[1,0.5]];portConstraint=eastwest;autosize=1;" parent="zp3tI751EjAqgCoOAfSL-33" vertex="1">
          <mxGeometry y="71" width="295" height="32" as="geometry" />
        </mxCell>
        <mxCell id="zp3tI751EjAqgCoOAfSL-40" value="+ step() : Action" style="text;strokeColor=none;fillColor=none;align=left;verticalAlign=top;spacingLeft=4;spacingRight=4;overflow=hidden;rotatable=0;points=[[0,0.5],[1,0.5]];portConstraint=eastwest;fontColor=#B3B3B3;autosize=1;" parent="zp3tI751EjAqgCoOAfSL-33" vertex="1">
          <mxGeometry y="103" width="295" height="18" as="geometry" />
        </mxCell>
        <mxCell id="zp3tI751EjAqgCoOAfSL-93" value="+ handleMessage(message : Percept,&#xa;sender : String)" style="text;strokeColor=none;fillColor=none;align=left;verticalAlign=top;spacingLeft=4;spacingRight=4;overflow=hidden;rotatable=0;points=[[0,0.5],[1,0.5]];portConstraint=eastwest;autosize=1;" parent="zp3tI751EjAqgCoOAfSL-33" vertex="1">
          <mxGeometry y="121" width="295" height="32" as="geometry" />
        </mxCell>
        <mxCell id="zp3tI751EjAqgCoOAfSL-41" value="+ handlePercept(percept Percept)" style="text;strokeColor=none;fillColor=none;align=left;verticalAlign=top;spacingLeft=4;spacingRight=4;overflow=hidden;rotatable=0;points=[[0,0.5],[1,0.5]];portConstraint=eastwest;autosize=1;" parent="zp3tI751EjAqgCoOAfSL-33" vertex="1">
          <mxGeometry y="153" width="295" height="18" as="geometry" />
        </mxCell>
        <mxCell id="zp3tI751EjAqgCoOAfSL-94" value="+ run()" style="text;strokeColor=none;fillColor=none;align=left;verticalAlign=top;spacingLeft=4;spacingRight=4;overflow=hidden;rotatable=0;points=[[0,0.5],[1,0.5]];portConstraint=eastwest;autosize=1;" parent="zp3tI751EjAqgCoOAfSL-33" vertex="1">
          <mxGeometry y="171" width="295" height="18" as="geometry" />
        </mxCell>
        <mxCell id="zp3tI751EjAqgCoOAfSL-96" value="- performTask (task : Percept, sender : String)" style="text;strokeColor=none;fillColor=none;align=left;verticalAlign=top;spacingLeft=4;spacingRight=4;overflow=hidden;rotatable=0;points=[[0,0.5],[1,0.5]];portConstraint=eastwest;autosize=1;" parent="zp3tI751EjAqgCoOAfSL-33" vertex="1">
          <mxGeometry y="189" width="295" height="18" as="geometry" />
        </mxCell>
        <mxCell id="zp3tI751EjAqgCoOAfSL-97" value="- unpackSupervisorPercept(task : Percept) : Percept" style="text;strokeColor=none;fillColor=none;align=left;verticalAlign=top;spacingLeft=4;spacingRight=4;overflow=hidden;rotatable=0;points=[[0,0.5],[1,0.5]];portConstraint=eastwest;autosize=1;" parent="zp3tI751EjAqgCoOAfSL-33" vertex="1">
          <mxGeometry y="207" width="295" height="18" as="geometry" />
        </mxCell>
        <mxCell id="zp3tI751EjAqgCoOAfSL-98" value="- handleSupervisorMessage(p : Percept)" style="text;strokeColor=none;fillColor=none;align=left;verticalAlign=top;spacingLeft=4;spacingRight=4;overflow=hidden;rotatable=0;points=[[0,0.5],[1,0.5]];portConstraint=eastwest;autosize=1;" parent="zp3tI751EjAqgCoOAfSL-33" vertex="1">
          <mxGeometry y="225" width="295" height="18" as="geometry" />
        </mxCell>
        <mxCell id="zp3tI751EjAqgCoOAfSL-99" value="- forwardMessage(p : Percept, sender : String)" style="text;strokeColor=none;fillColor=none;align=left;verticalAlign=top;spacingLeft=4;spacingRight=4;overflow=hidden;rotatable=0;points=[[0,0.5],[1,0.5]];portConstraint=eastwest;autosize=1;" parent="zp3tI751EjAqgCoOAfSL-33" vertex="1">
          <mxGeometry y="243" width="295" height="18" as="geometry" />
        </mxCell>
        <mxCell id="zp3tI751EjAqgCoOAfSL-100" value="- setDummyAction()" style="text;strokeColor=none;fillColor=none;align=left;verticalAlign=top;spacingLeft=4;spacingRight=4;overflow=hidden;rotatable=0;points=[[0,0.5],[1,0.5]];portConstraint=eastwest;autosize=1;" parent="zp3tI751EjAqgCoOAfSL-33" vertex="1">
          <mxGeometry y="261" width="295" height="26" as="geometry" />
        </mxCell>
        <mxCell id="zp3tI751EjAqgCoOAfSL-55" style="edgeStyle=orthogonalEdgeStyle;rounded=0;orthogonalLoop=1;jettySize=auto;html=1;fontSize=9;endArrow=none;endFill=0;" parent="1" source="zp3tI751EjAqgCoOAfSL-24" target="zp3tI751EjAqgCoOAfSL-7" edge="1">
          <mxGeometry relative="1" as="geometry">
            <mxPoint x="1991" y="636.5" as="sourcePoint" />
            <Array as="points">
              <mxPoint x="2096" y="910" />
              <mxPoint x="1955" y="910" />
              <mxPoint x="1955" y="516" />
            </Array>
          </mxGeometry>
        </mxCell>
        <mxCell id="zp3tI751EjAqgCoOAfSL-61" value="Agent" style="swimlane;fontStyle=3;align=center;verticalAlign=top;childLayout=stackLayout;horizontal=1;startSize=26;horizontalStack=0;resizeParent=1;resizeParentMax=0;resizeLast=0;collapsible=1;marginBottom=0;labelBackgroundColor=none;fillColor=#fff2cc;strokeColor=#d6b656;shadow=0;sketch=0;gradientColor=none;swimlaneFillColor=default;" parent="1" vertex="1">
          <mxGeometry x="1981" y="433" width="279" height="243" as="geometry" />
        </mxCell>
        <mxCell id="SS7VEFHCa6W0pI9FkJkT-1" value="- name : String" style="text;strokeColor=none;fillColor=none;align=left;verticalAlign=top;spacingLeft=4;spacingRight=4;overflow=hidden;rotatable=0;points=[[0,0.5],[1,0.5]];portConstraint=eastwest;autosize=1;" parent="zp3tI751EjAqgCoOAfSL-61" vertex="1">
          <mxGeometry y="26" width="279" height="18" as="geometry" />
        </mxCell>
        <mxCell id="zp3tI751EjAqgCoOAfSL-62" value="" style="line;strokeWidth=1;fillColor=none;align=left;verticalAlign=middle;spacingTop=-1;spacingLeft=3;spacingRight=3;rotatable=0;labelPosition=right;points=[];portConstraint=eastwest;" parent="zp3tI751EjAqgCoOAfSL-61" vertex="1">
          <mxGeometry y="44" width="279" height="8" as="geometry" />
        </mxCell>
        <mxCell id="zp3tI751EjAqgCoOAfSL-81" value="+ Agent(name : String, mailbox : MailService)" style="text;strokeColor=none;fillColor=none;align=left;verticalAlign=top;spacingLeft=4;spacingRight=4;overflow=hidden;rotatable=0;points=[[0,0.5],[1,0.5]];portConstraint=eastwest;autosize=1;" parent="zp3tI751EjAqgCoOAfSL-61" vertex="1">
          <mxGeometry y="52" width="279" height="18" as="geometry" />
        </mxCell>
        <mxCell id="zp3tI751EjAqgCoOAfSL-80" value="+ handlePercept(percept : Percept)" style="text;strokeColor=none;fillColor=none;align=left;verticalAlign=top;spacingLeft=4;spacingRight=4;overflow=hidden;rotatable=0;points=[[0,0.5],[1,0.5]];portConstraint=eastwest;autosize=1;" parent="zp3tI751EjAqgCoOAfSL-61" vertex="1">
          <mxGeometry y="70" width="279" height="18" as="geometry" />
        </mxCell>
        <mxCell id="zp3tI751EjAqgCoOAfSL-64" value="+ step() : Action" style="text;strokeColor=none;fillColor=none;align=left;verticalAlign=top;spacingLeft=4;spacingRight=4;overflow=hidden;rotatable=0;points=[[0,0.5],[1,0.5]];portConstraint=eastwest;autosize=1;" parent="zp3tI751EjAqgCoOAfSL-61" vertex="1">
          <mxGeometry y="88" width="279" height="18" as="geometry" />
        </mxCell>
        <mxCell id="zp3tI751EjAqgCoOAfSL-68" value="+ getName() : String" style="text;strokeColor=none;fillColor=none;align=left;verticalAlign=top;spacingLeft=4;spacingRight=4;overflow=hidden;rotatable=0;points=[[0,0.5],[1,0.5]];portConstraint=eastwest;autosize=1;" parent="zp3tI751EjAqgCoOAfSL-61" vertex="1">
          <mxGeometry y="106" width="279" height="18" as="geometry" />
        </mxCell>
        <mxCell id="zp3tI751EjAqgCoOAfSL-69" value="# sendMessage(message: Percept,&#xa;receiver : String, sender : String)" style="text;strokeColor=none;fillColor=none;align=left;verticalAlign=top;spacingLeft=4;spacingRight=4;overflow=hidden;rotatable=0;points=[[0,0.5],[1,0.5]];portConstraint=eastwest;autosize=1;" parent="zp3tI751EjAqgCoOAfSL-61" vertex="1">
          <mxGeometry y="124" width="279" height="32" as="geometry" />
        </mxCell>
        <mxCell id="zp3tI751EjAqgCoOAfSL-70" value="+ broadcast(message : Percept,&#xa;sender : String)" style="text;strokeColor=none;fillColor=none;align=left;verticalAlign=top;spacingLeft=4;spacingRight=4;overflow=hidden;rotatable=0;points=[[0,0.5],[1,0.5]];portConstraint=eastwest;autosize=1;" parent="zp3tI751EjAqgCoOAfSL-61" vertex="1">
          <mxGeometry y="156" width="279" height="32" as="geometry" />
        </mxCell>
        <mxCell id="zp3tI751EjAqgCoOAfSL-71" value="+ setPercepts(addList: List&lt;Percept&gt;,&#xa;delList : List&lt;Percept&gt;)" style="text;strokeColor=none;fillColor=none;align=left;verticalAlign=top;spacingLeft=4;spacingRight=4;overflow=hidden;rotatable=0;points=[[0,0.5],[1,0.5]];portConstraint=eastwest;autosize=1;" parent="zp3tI751EjAqgCoOAfSL-61" vertex="1">
          <mxGeometry y="188" width="279" height="32" as="geometry" />
        </mxCell>
        <mxCell id="zp3tI751EjAqgCoOAfSL-72" value="+ getPercepts() : List&lt;Percept&gt;" style="text;strokeColor=none;fillColor=none;align=left;verticalAlign=top;spacingLeft=4;spacingRight=4;overflow=hidden;rotatable=0;points=[[0,0.5],[1,0.5]];portConstraint=eastwest;autosize=1;" parent="zp3tI751EjAqgCoOAfSL-61" vertex="1">
          <mxGeometry y="220" width="279" height="23" as="geometry" />
        </mxCell>
        <mxCell id="zp3tI751EjAqgCoOAfSL-82" value="Logic for Decision making&lt;br&gt;in Agent or own Class?&lt;br&gt;In &quot;Extends Goal&quot; Classes.&lt;br&gt;Results go to&amp;nbsp; Plan Classes." style="shape=note2;boundedLbl=1;whiteSpace=wrap;html=1;size=25;verticalAlign=top;align=center;" parent="1" vertex="1">
          <mxGeometry x="1707" y="734" width="190" height="105" as="geometry" />
        </mxCell>
        <mxCell id="zp3tI751EjAqgCoOAfSL-83" value="Beliefs are filled by Percepts&lt;br&gt;(Start Percepts, Step Percepts)" style="shape=note2;boundedLbl=1;whiteSpace=wrap;html=1;size=25;verticalAlign=middle;align=center;" parent="1" vertex="1">
          <mxGeometry x="1424" y="559" width="249" height="65" as="geometry" />
        </mxCell>
        <mxCell id="zp3tI751EjAqgCoOAfSL-103" value="Scheduler" style="swimlane;fontStyle=1;align=center;verticalAlign=top;childLayout=stackLayout;horizontal=1;startSize=26;horizontalStack=0;resizeParent=1;resizeParentMax=0;resizeLast=0;collapsible=1;marginBottom=0;labelBackgroundColor=none;fillColor=#fff2cc;strokeColor=#d6b656;shadow=0;sketch=0;gradientColor=none;swimlaneFillColor=default;" parent="1" vertex="1">
          <mxGeometry x="1981" y="18" width="291" height="292" as="geometry" />
        </mxCell>
        <mxCell id="zp3tI751EjAqgCoOAfSL-104" value="- agentConfigurations : List&lt;AgentConf&gt;" style="text;strokeColor=none;fillColor=none;align=left;verticalAlign=top;spacingLeft=4;spacingRight=4;overflow=hidden;rotatable=0;points=[[0,0.5],[1,0.5]];portConstraint=eastwest;" parent="zp3tI751EjAqgCoOAfSL-103" vertex="1">
          <mxGeometry y="26" width="291" height="20" as="geometry" />
        </mxCell>
        <mxCell id="zp3tI751EjAqgCoOAfSL-107" value="- eis : EnviromentInterface" style="text;strokeColor=none;fillColor=none;align=left;verticalAlign=top;spacingLeft=4;spacingRight=4;overflow=hidden;rotatable=0;points=[[0,0.5],[1,0.5]];portConstraint=eastwest;" parent="zp3tI751EjAqgCoOAfSL-103" vertex="1">
          <mxGeometry y="46" width="291" height="22" as="geometry" />
        </mxCell>
        <mxCell id="zp3tI751EjAqgCoOAfSL-109" value="" style="line;strokeWidth=1;fillColor=none;align=left;verticalAlign=middle;spacingTop=-1;spacingLeft=3;spacingRight=3;rotatable=0;labelPosition=right;points=[];portConstraint=eastwest;" parent="zp3tI751EjAqgCoOAfSL-103" vertex="1">
          <mxGeometry y="68" width="291" height="8" as="geometry" />
        </mxCell>
        <mxCell id="zp3tI751EjAqgCoOAfSL-110" value="+ Scheduler(path : String)" style="text;strokeColor=none;fillColor=none;align=left;verticalAlign=top;spacingLeft=4;spacingRight=4;overflow=hidden;rotatable=0;points=[[0,0.5],[1,0.5]];portConstraint=eastwest;autosize=1;" parent="zp3tI751EjAqgCoOAfSL-103" vertex="1">
          <mxGeometry y="76" width="291" height="18" as="geometry" />
        </mxCell>
        <mxCell id="zp3tI751EjAqgCoOAfSL-111" value="- parseConfig(path : String)" style="text;strokeColor=none;fillColor=none;align=left;verticalAlign=top;spacingLeft=4;spacingRight=4;overflow=hidden;rotatable=0;points=[[0,0.5],[1,0.5]];portConstraint=eastwest;autosize=1;" parent="zp3tI751EjAqgCoOAfSL-103" vertex="1">
          <mxGeometry y="94" width="291" height="18" as="geometry" />
        </mxCell>
        <mxCell id="zp3tI751EjAqgCoOAfSL-112" value="+ set Enviroment(ei : EnviromentInterface)" style="text;strokeColor=none;fillColor=none;align=left;verticalAlign=top;spacingLeft=4;spacingRight=4;overflow=hidden;rotatable=0;points=[[0,0.5],[1,0.5]];portConstraint=eastwest;autosize=1;" parent="zp3tI751EjAqgCoOAfSL-103" vertex="1">
          <mxGeometry y="112" width="291" height="18" as="geometry" />
        </mxCell>
        <mxCell id="zp3tI751EjAqgCoOAfSL-113" value="+ step()" style="text;strokeColor=none;fillColor=none;align=left;verticalAlign=top;spacingLeft=4;spacingRight=4;overflow=hidden;rotatable=0;points=[[0,0.5],[1,0.5]];portConstraint=eastwest;autosize=1;" parent="zp3tI751EjAqgCoOAfSL-103" vertex="1">
          <mxGeometry y="130" width="291" height="18" as="geometry" />
        </mxCell>
        <mxCell id="zp3tI751EjAqgCoOAfSL-114" value="+ handlePercept(agent : String, percept : Percept)" style="text;strokeColor=none;fillColor=none;align=left;verticalAlign=top;spacingLeft=4;spacingRight=4;overflow=hidden;rotatable=0;points=[[0,0.5],[1,0.5]];portConstraint=eastwest;autosize=1;" parent="zp3tI751EjAqgCoOAfSL-103" vertex="1">
          <mxGeometry y="148" width="291" height="18" as="geometry" />
        </mxCell>
        <mxCell id="zp3tI751EjAqgCoOAfSL-116" value="+ handleStateChange(newState : EnviromentState)" style="text;strokeColor=none;fillColor=none;align=left;verticalAlign=top;spacingLeft=4;spacingRight=4;overflow=hidden;rotatable=0;points=[[0,0.5],[1,0.5]];portConstraint=eastwest;autosize=1;" parent="zp3tI751EjAqgCoOAfSL-103" vertex="1">
          <mxGeometry y="166" width="291" height="18" as="geometry" />
        </mxCell>
        <mxCell id="zp3tI751EjAqgCoOAfSL-117" value="+ handleFreeEntity(entity : String,&#xa;agents : Collection&lt;String&gt;)" style="text;strokeColor=none;fillColor=none;align=left;verticalAlign=top;spacingLeft=4;spacingRight=4;overflow=hidden;rotatable=0;points=[[0,0.5],[1,0.5]];portConstraint=eastwest;autosize=1;" parent="zp3tI751EjAqgCoOAfSL-103" vertex="1">
          <mxGeometry y="184" width="291" height="32" as="geometry" />
        </mxCell>
        <mxCell id="zp3tI751EjAqgCoOAfSL-129" value="+ handleDeletedEntity(entity : String,&#xa;agents : Collection&lt;String&gt;)" style="text;strokeColor=none;fillColor=none;align=left;verticalAlign=top;spacingLeft=4;spacingRight=4;overflow=hidden;rotatable=0;points=[[0,0.5],[1,0.5]];portConstraint=eastwest;autosize=1;" parent="zp3tI751EjAqgCoOAfSL-103" vertex="1">
          <mxGeometry y="216" width="291" height="32" as="geometry" />
        </mxCell>
        <mxCell id="zp3tI751EjAqgCoOAfSL-130" value="+ handleNewEntity(entity : String)" style="text;strokeColor=none;fillColor=none;align=left;verticalAlign=top;spacingLeft=4;spacingRight=4;overflow=hidden;rotatable=0;points=[[0,0.5],[1,0.5]];portConstraint=eastwest;autosize=1;" parent="zp3tI751EjAqgCoOAfSL-103" vertex="1">
          <mxGeometry y="248" width="291" height="18" as="geometry" />
        </mxCell>
        <mxCell id="zp3tI751EjAqgCoOAfSL-131" value="+ send(agent : Agent, action : Action)" style="text;strokeColor=none;fillColor=none;align=left;verticalAlign=top;spacingLeft=4;spacingRight=4;overflow=hidden;rotatable=0;points=[[0,0.5],[1,0.5]];portConstraint=eastwest;autosize=1;" parent="zp3tI751EjAqgCoOAfSL-103" vertex="1">
          <mxGeometry y="266" width="291" height="26" as="geometry" />
        </mxCell>
        <mxCell id="zp3tI751EjAqgCoOAfSL-132" value="&lt;&lt;interface&gt;&gt;&#xa;ISupervisor" style="swimlane;fontStyle=1;align=center;verticalAlign=top;childLayout=stackLayout;horizontal=1;startSize=43;horizontalStack=0;resizeParent=1;resizeParentMax=0;resizeLast=0;collapsible=1;marginBottom=0;labelBackgroundColor=none;fillColor=#fff2cc;strokeColor=#d6b656;shadow=0;sketch=0;gradientColor=none;swimlaneFillColor=default;" parent="1" vertex="1">
          <mxGeometry x="2599.5" y="447" width="306" height="95" as="geometry" />
        </mxCell>
        <mxCell id="zp3tI751EjAqgCoOAfSL-133" value="" style="line;strokeWidth=1;fillColor=none;align=left;verticalAlign=middle;spacingTop=-1;spacingLeft=3;spacingRight=3;rotatable=0;labelPosition=right;points=[];portConstraint=eastwest;" parent="zp3tI751EjAqgCoOAfSL-132" vertex="1">
          <mxGeometry y="43" width="306" height="8" as="geometry" />
        </mxCell>
        <mxCell id="zp3tI751EjAqgCoOAfSL-134" value="+ handleMessage(message : Percept, sender : String)" style="text;strokeColor=none;fillColor=none;align=left;verticalAlign=top;spacingLeft=4;spacingRight=4;overflow=hidden;rotatable=0;points=[[0,0.5],[1,0.5]];portConstraint=eastwest;autosize=1;" parent="zp3tI751EjAqgCoOAfSL-132" vertex="1">
          <mxGeometry y="51" width="306" height="18" as="geometry" />
        </mxCell>
        <mxCell id="zp3tI751EjAqgCoOAfSL-135" value="+ setName(name : String)" style="text;strokeColor=none;fillColor=none;align=left;verticalAlign=top;spacingLeft=4;spacingRight=4;overflow=hidden;rotatable=0;points=[[0,0.5],[1,0.5]];portConstraint=eastwest;autosize=1;" parent="zp3tI751EjAqgCoOAfSL-132" vertex="1">
          <mxGeometry y="69" width="306" height="26" as="geometry" />
        </mxCell>
        <mxCell id="zp3tI751EjAqgCoOAfSL-140" value="&lt;p style=&quot;margin: 0px ; margin-top: 4px ; text-align: center&quot;&gt;&lt;b&gt;GroupSuperviser&lt;/b&gt;&lt;/p&gt;&lt;hr size=&quot;1&quot;&gt;&amp;nbsp; &amp;nbsp;agentIds: string[]&lt;div style=&quot;height: 2px&quot;&gt;&amp;nbsp;&amp;nbsp;&lt;/div&gt;&lt;div style=&quot;height: 2px&quot;&gt;&lt;br&gt;&lt;/div&gt;&lt;div style=&quot;height: 2px&quot;&gt;&lt;br&gt;&lt;/div&gt;&lt;div style=&quot;height: 2px&quot;&gt;&lt;br&gt;&lt;/div&gt;&lt;div style=&quot;height: 2px&quot;&gt;&lt;br&gt;&lt;/div&gt;&lt;div style=&quot;height: 2px&quot;&gt;&lt;br&gt;&lt;/div&gt;&lt;div style=&quot;height: 2px&quot;&gt;&lt;br&gt;&lt;/div&gt;&lt;div style=&quot;height: 2px&quot;&gt;&amp;nbsp; &amp;nbsp;getAgentInfos()&lt;/div&gt;&lt;div style=&quot;height: 2px&quot;&gt;&lt;br&gt;&lt;/div&gt;&lt;div style=&quot;height: 2px&quot;&gt;&lt;br&gt;&lt;/div&gt;&lt;div style=&quot;height: 2px&quot;&gt;&lt;br&gt;&lt;/div&gt;&lt;div style=&quot;height: 2px&quot;&gt;&lt;br&gt;&lt;/div&gt;&lt;div style=&quot;height: 2px&quot;&gt;&lt;br&gt;&lt;/div&gt;&lt;div style=&quot;height: 2px&quot;&gt;&lt;br&gt;&lt;/div&gt;&lt;div style=&quot;height: 2px&quot;&gt;&lt;br&gt;&lt;/div&gt;&lt;div style=&quot;height: 2px&quot;&gt;&lt;br&gt;&lt;/div&gt;&lt;div style=&quot;height: 2px&quot;&gt;&amp;nbsp; &amp;nbsp;calculateStrategy()&lt;/div&gt;&lt;div style=&quot;height: 2px&quot;&gt;&lt;br&gt;&lt;/div&gt;&lt;div style=&quot;height: 2px&quot;&gt;&lt;br&gt;&lt;/div&gt;&lt;div style=&quot;height: 2px&quot;&gt;&lt;br&gt;&lt;/div&gt;&lt;div style=&quot;height: 2px&quot;&gt;&lt;br&gt;&lt;/div&gt;&lt;div style=&quot;height: 2px&quot;&gt;&lt;br&gt;&lt;/div&gt;&lt;div style=&quot;height: 2px&quot;&gt;&lt;br&gt;&lt;/div&gt;&lt;div style=&quot;height: 2px&quot;&gt;&amp;nbsp; &amp;nbsp;mergeWith(g: GroupSuperviser))&lt;/div&gt;&lt;div style=&quot;height: 2px&quot;&gt;&lt;br&gt;&lt;/div&gt;&lt;div style=&quot;height: 2px&quot;&gt;&lt;br&gt;&lt;/div&gt;&lt;div style=&quot;height: 2px&quot;&gt;&lt;br&gt;&lt;/div&gt;&lt;div style=&quot;height: 2px&quot;&gt;&lt;br&gt;&lt;/div&gt;&lt;div style=&quot;height: 2px&quot;&gt;&lt;br&gt;&lt;/div&gt;&lt;div style=&quot;height: 2px&quot;&gt;&lt;br&gt;&lt;/div&gt;&lt;div style=&quot;height: 2px&quot;&gt;&lt;br&gt;&lt;/div&gt;" style="verticalAlign=top;align=left;overflow=fill;fontSize=12;fontFamily=Helvetica;html=1;dashed=1;" parent="1" vertex="1">
          <mxGeometry x="2289" y="1799" width="212" height="139" as="geometry" />
        </mxCell>
        <mxCell id="zp3tI751EjAqgCoOAfSL-141" value="&lt;&lt;interface&gt;&gt;&#xa;Supervisable" style="swimlane;fontStyle=1;align=center;verticalAlign=top;childLayout=stackLayout;horizontal=1;startSize=43;horizontalStack=0;resizeParent=1;resizeParentMax=0;resizeLast=0;collapsible=1;marginBottom=0;labelBackgroundColor=none;fillColor=#fff2cc;strokeColor=#d6b656;shadow=0;sketch=0;gradientColor=none;swimlaneFillColor=default;" parent="1" vertex="1">
          <mxGeometry x="2280" y="829" width="278" height="109" as="geometry" />
        </mxCell>
        <mxCell id="zp3tI751EjAqgCoOAfSL-142" value="" style="line;strokeWidth=1;fillColor=none;align=left;verticalAlign=middle;spacingTop=-1;spacingLeft=3;spacingRight=3;rotatable=0;labelPosition=right;points=[];portConstraint=eastwest;" parent="zp3tI751EjAqgCoOAfSL-141" vertex="1">
          <mxGeometry y="43" width="278" height="8" as="geometry" />
        </mxCell>
        <mxCell id="zp3tI751EjAqgCoOAfSL-143" value="+ forwardMessageFromSupervisor(&#xa;message : Percept, receiver : string)" style="text;strokeColor=none;fillColor=none;align=left;verticalAlign=top;spacingLeft=4;spacingRight=4;overflow=hidden;rotatable=0;points=[[0,0.5],[1,0.5]];portConstraint=eastwest;autosize=1;" parent="zp3tI751EjAqgCoOAfSL-141" vertex="1">
          <mxGeometry y="51" width="278" height="32" as="geometry" />
        </mxCell>
        <mxCell id="zp3tI751EjAqgCoOAfSL-144" value="+ getName()" style="text;strokeColor=none;fillColor=none;align=left;verticalAlign=top;spacingLeft=4;spacingRight=4;overflow=hidden;rotatable=0;points=[[0,0.5],[1,0.5]];portConstraint=eastwest;autosize=1;" parent="zp3tI751EjAqgCoOAfSL-141" vertex="1">
          <mxGeometry y="83" width="278" height="26" as="geometry" />
        </mxCell>
        <mxCell id="zp3tI751EjAqgCoOAfSL-148" value="" style="endArrow=block;dashed=1;endFill=0;endSize=12;html=1;rounded=0;fontSize=9;fontColor=#B3B3B3;edgeStyle=orthogonalEdgeStyle;" parent="1" source="zp3tI751EjAqgCoOAfSL-33" target="zp3tI751EjAqgCoOAfSL-141" edge="1">
          <mxGeometry width="160" relative="1" as="geometry">
            <mxPoint x="2255" y="1110" as="sourcePoint" />
            <mxPoint x="2542" y="1144" as="targetPoint" />
            <Array as="points">
              <mxPoint x="2185" y="1084" />
              <mxPoint x="2423" y="1084" />
            </Array>
          </mxGeometry>
        </mxCell>
        <mxCell id="zp3tI751EjAqgCoOAfSL-151" value="Supervisor" style="swimlane;fontStyle=1;align=center;verticalAlign=top;childLayout=stackLayout;horizontal=1;startSize=26;horizontalStack=0;resizeParent=1;resizeParentMax=0;resizeLast=0;collapsible=1;marginBottom=0;labelBackgroundColor=none;fillColor=#fff2cc;strokeColor=#d6b656;shadow=0;sketch=0;gradientColor=none;swimlaneFillColor=default;" parent="1" vertex="1">
          <mxGeometry x="2614" y="617" width="277" height="145" as="geometry" />
        </mxCell>
        <mxCell id="zp3tI751EjAqgCoOAfSL-152" value="- name : String" style="text;strokeColor=none;fillColor=none;align=left;verticalAlign=top;spacingLeft=4;spacingRight=4;overflow=hidden;rotatable=0;points=[[0,0.5],[1,0.5]];portConstraint=eastwest;autosize=1;" parent="zp3tI751EjAqgCoOAfSL-151" vertex="1">
          <mxGeometry y="26" width="277" height="18" as="geometry" />
        </mxCell>
        <mxCell id="zp3tI751EjAqgCoOAfSL-163" value="- parent : Supervisable" style="text;strokeColor=none;fillColor=none;align=left;verticalAlign=top;spacingLeft=4;spacingRight=4;overflow=hidden;rotatable=0;points=[[0,0.5],[1,0.5]];portConstraint=eastwest;autosize=1;" parent="zp3tI751EjAqgCoOAfSL-151" vertex="1">
          <mxGeometry y="44" width="277" height="18" as="geometry" />
        </mxCell>
        <mxCell id="zp3tI751EjAqgCoOAfSL-153" value="" style="line;strokeWidth=1;fillColor=none;align=left;verticalAlign=middle;spacingTop=-1;spacingLeft=3;spacingRight=3;rotatable=0;labelPosition=right;points=[];portConstraint=eastwest;" parent="zp3tI751EjAqgCoOAfSL-151" vertex="1">
          <mxGeometry y="62" width="277" height="8" as="geometry" />
        </mxCell>
        <mxCell id="zp3tI751EjAqgCoOAfSL-154" value="+ Supervisor(parent : Supervisable)" style="text;strokeColor=none;fillColor=none;align=left;verticalAlign=top;spacingLeft=4;spacingRight=4;overflow=hidden;rotatable=0;points=[[0,0.5],[1,0.5]];portConstraint=eastwest;autosize=1;" parent="zp3tI751EjAqgCoOAfSL-151" vertex="1">
          <mxGeometry y="70" width="277" height="18" as="geometry" />
        </mxCell>
        <mxCell id="zp3tI751EjAqgCoOAfSL-155" value="+ handleMessage(message : Percept,&#xa;sender : String)" style="text;strokeColor=none;fillColor=none;align=left;verticalAlign=top;spacingLeft=4;spacingRight=4;overflow=hidden;rotatable=0;points=[[0,0.5],[1,0.5]];portConstraint=eastwest;autosize=1;" parent="zp3tI751EjAqgCoOAfSL-151" vertex="1">
          <mxGeometry y="88" width="277" height="32" as="geometry" />
        </mxCell>
        <mxCell id="zp3tI751EjAqgCoOAfSL-157" value="+ setName(name : String)" style="text;strokeColor=none;fillColor=none;align=left;verticalAlign=top;spacingLeft=4;spacingRight=4;overflow=hidden;rotatable=0;points=[[0,0.5],[1,0.5]];portConstraint=eastwest;autosize=1;" parent="zp3tI751EjAqgCoOAfSL-151" vertex="1">
          <mxGeometry y="120" width="277" height="25" as="geometry" />
        </mxCell>
        <mxCell id="zp3tI751EjAqgCoOAfSL-162" value="" style="endArrow=block;dashed=1;endFill=0;endSize=12;html=1;rounded=0;fontSize=9;fontColor=#B3B3B3;" parent="1" source="zp3tI751EjAqgCoOAfSL-151" target="zp3tI751EjAqgCoOAfSL-132" edge="1">
          <mxGeometry width="160" relative="1" as="geometry">
            <mxPoint x="2711" y="664" as="sourcePoint" />
            <mxPoint x="2753" y="530" as="targetPoint" />
            <Array as="points" />
          </mxGeometry>
        </mxCell>
        <mxCell id="zp3tI751EjAqgCoOAfSL-164" value="MailService" style="swimlane;fontStyle=1;align=center;verticalAlign=top;childLayout=stackLayout;horizontal=1;startSize=26;horizontalStack=0;resizeParent=1;resizeParentMax=0;resizeLast=0;collapsible=1;marginBottom=0;labelBackgroundColor=none;fillColor=#fff2cc;strokeColor=#d6b656;shadow=0;sketch=0;gradientColor=none;swimlaneFillColor=default;" parent="1" vertex="1">
          <mxGeometry x="2499" y="30" width="277" height="164" as="geometry" />
        </mxCell>
        <mxCell id="zp3tI751EjAqgCoOAfSL-165" value="- register : Map&lt;String, Agent&gt;" style="text;strokeColor=none;fillColor=none;align=left;verticalAlign=top;spacingLeft=4;spacingRight=4;overflow=hidden;rotatable=0;points=[[0,0.5],[1,0.5]];portConstraint=eastwest;autosize=1;" parent="zp3tI751EjAqgCoOAfSL-164" vertex="1">
          <mxGeometry y="26" width="277" height="18" as="geometry" />
        </mxCell>
        <mxCell id="zp3tI751EjAqgCoOAfSL-166" value="- agentsByTeam : Map&lt;String, List&lt;Agent&gt;&gt;" style="text;strokeColor=none;fillColor=none;align=left;verticalAlign=top;spacingLeft=4;spacingRight=4;overflow=hidden;rotatable=0;points=[[0,0.5],[1,0.5]];portConstraint=eastwest;autosize=1;" parent="zp3tI751EjAqgCoOAfSL-164" vertex="1">
          <mxGeometry y="44" width="277" height="18" as="geometry" />
        </mxCell>
        <mxCell id="zp3tI751EjAqgCoOAfSL-172" value="- teamForAgent: Map&lt;String, String&gt;" style="text;strokeColor=none;fillColor=none;align=left;verticalAlign=top;spacingLeft=4;spacingRight=4;overflow=hidden;rotatable=0;points=[[0,0.5],[1,0.5]];portConstraint=eastwest;autosize=1;" parent="zp3tI751EjAqgCoOAfSL-164" vertex="1">
          <mxGeometry y="62" width="277" height="18" as="geometry" />
        </mxCell>
        <mxCell id="zp3tI751EjAqgCoOAfSL-167" value="" style="line;strokeWidth=1;fillColor=none;align=left;verticalAlign=middle;spacingTop=-1;spacingLeft=3;spacingRight=3;rotatable=0;labelPosition=right;points=[];portConstraint=eastwest;" parent="zp3tI751EjAqgCoOAfSL-164" vertex="1">
          <mxGeometry y="80" width="277" height="8" as="geometry" />
        </mxCell>
        <mxCell id="zp3tI751EjAqgCoOAfSL-168" value="+ registerAgent(agent : Agent, team : String)" style="text;strokeColor=none;fillColor=none;align=left;verticalAlign=top;spacingLeft=4;spacingRight=4;overflow=hidden;rotatable=0;points=[[0,0.5],[1,0.5]];portConstraint=eastwest;autosize=1;" parent="zp3tI751EjAqgCoOAfSL-164" vertex="1">
          <mxGeometry y="88" width="277" height="18" as="geometry" />
        </mxCell>
        <mxCell id="zp3tI751EjAqgCoOAfSL-169" value="+ sendMessage(message : Percept, to : String,&#xa;from : String)" style="text;strokeColor=none;fillColor=none;align=left;verticalAlign=top;spacingLeft=4;spacingRight=4;overflow=hidden;rotatable=0;points=[[0,0.5],[1,0.5]];portConstraint=eastwest;autosize=1;" parent="zp3tI751EjAqgCoOAfSL-164" vertex="1">
          <mxGeometry y="106" width="277" height="32" as="geometry" />
        </mxCell>
        <mxCell id="zp3tI751EjAqgCoOAfSL-170" value="+ broardcast(message : Percept, sender : String)" style="text;strokeColor=none;fillColor=none;align=left;verticalAlign=top;spacingLeft=4;spacingRight=4;overflow=hidden;rotatable=0;points=[[0,0.5],[1,0.5]];portConstraint=eastwest;autosize=1;" parent="zp3tI751EjAqgCoOAfSL-164" vertex="1">
          <mxGeometry y="138" width="277" height="26" as="geometry" />
        </mxCell>
        <mxCell id="zp3tI751EjAqgCoOAfSL-174" value="Extends" style="endArrow=block;endSize=16;endFill=0;html=1;rounded=0;fontSize=9;fontColor=#B3B3B3;" parent="1" source="zp3tI751EjAqgCoOAfSL-33" target="zp3tI751EjAqgCoOAfSL-24" edge="1">
          <mxGeometry width="160" relative="1" as="geometry">
            <mxPoint x="1800" y="1297" as="sourcePoint" />
            <mxPoint x="1960" y="1297" as="targetPoint" />
          </mxGeometry>
        </mxCell>
        <mxCell id="zp3tI751EjAqgCoOAfSL-175" value="Extends" style="endArrow=block;endSize=16;endFill=0;html=1;rounded=0;fontSize=9;fontColor=#B3B3B3;" parent="1" source="zp3tI751EjAqgCoOAfSL-24" target="zp3tI751EjAqgCoOAfSL-61" edge="1">
          <mxGeometry width="160" relative="1" as="geometry">
            <mxPoint x="2139.833846153847" y="1109" as="sourcePoint" />
            <mxPoint x="2139.913846153847" y="1057" as="targetPoint" />
          </mxGeometry>
        </mxCell>
        <mxCell id="zp3tI751EjAqgCoOAfSL-177" value="" style="html=1;points=[];perimeter=orthogonalPerimeter;shadow=0;dashed=1;labelBackgroundColor=none;sketch=0;fontSize=9;fontColor=#B3B3B3;gradientColor=none;" parent="1" vertex="1">
          <mxGeometry x="1363" y="1848" width="10" height="435" as="geometry" />
        </mxCell>
        <mxCell id="zp3tI751EjAqgCoOAfSL-178" value="" style="html=1;points=[];perimeter=orthogonalPerimeter;shadow=0;dashed=1;labelBackgroundColor=none;sketch=0;fontSize=9;fontColor=#B3B3B3;gradientColor=none;" parent="1" vertex="1">
          <mxGeometry x="1585" y="1891" width="10" height="388" as="geometry" />
        </mxCell>
        <mxCell id="zp3tI751EjAqgCoOAfSL-180" value="&lt;font color=&quot;#000000&quot;&gt;Scheduler&lt;/font&gt;" style="html=1;shadow=0;dashed=1;labelBackgroundColor=none;sketch=0;fontSize=9;fontColor=#B3B3B3;gradientColor=none;" parent="1" vertex="1">
          <mxGeometry x="1313" y="1782" width="110" height="50" as="geometry" />
        </mxCell>
        <mxCell id="zp3tI751EjAqgCoOAfSL-181" value="&lt;span style=&quot;color: rgb(0 , 0 , 0)&quot;&gt;&lt;font style=&quot;font-size: 9px&quot;&gt;Belief&lt;/font&gt;&lt;/span&gt;" style="html=1;shadow=0;dashed=1;labelBackgroundColor=none;sketch=0;fontSize=9;fontColor=#B3B3B3;gradientColor=none;" parent="1" vertex="1">
          <mxGeometry x="1721" y="2056" width="110" height="22" as="geometry" />
        </mxCell>
        <mxCell id="zp3tI751EjAqgCoOAfSL-184" value="setEnviroment" style="html=1;verticalAlign=bottom;startArrow=circle;startFill=1;endArrow=open;startSize=6;endSize=8;rounded=0;fontSize=9;fontColor=#000000;" parent="1" edge="1">
          <mxGeometry width="80" relative="1" as="geometry">
            <mxPoint x="1211" y="1856" as="sourcePoint" />
            <mxPoint x="1363" y="1856" as="targetPoint" />
          </mxGeometry>
        </mxCell>
        <mxCell id="zp3tI751EjAqgCoOAfSL-185" value="run" style="html=1;verticalAlign=bottom;endArrow=block;rounded=0;fontSize=9;fontColor=#000000;exitX=0.2;exitY=0.126;exitDx=0;exitDy=0;exitPerimeter=0;" parent="1" source="zp3tI751EjAqgCoOAfSL-177" edge="1">
          <mxGeometry width="80" relative="1" as="geometry">
            <mxPoint x="1458" y="1939" as="sourcePoint" />
            <mxPoint x="1587" y="1903" as="targetPoint" />
          </mxGeometry>
        </mxCell>
        <mxCell id="zp3tI751EjAqgCoOAfSL-186" value="send(agent, action)" style="html=1;verticalAlign=bottom;endArrow=block;rounded=0;fontSize=9;fontColor=#000000;entryX=1.138;entryY=0.845;entryDx=0;entryDy=0;entryPerimeter=0;exitX=-0.224;exitY=0.822;exitDx=0;exitDy=0;exitPerimeter=0;" parent="1" edge="1">
          <mxGeometry width="80" relative="1" as="geometry">
            <mxPoint x="1584.9999999999998" y="2237" as="sourcePoint" />
            <mxPoint x="1376.62" y="2237.58" as="targetPoint" />
          </mxGeometry>
        </mxCell>
        <mxCell id="zp3tI751EjAqgCoOAfSL-187" value="setPercepts(addList, delList)" style="html=1;verticalAlign=bottom;endArrow=block;rounded=0;fontSize=9;fontColor=#000000;" parent="1" edge="1">
          <mxGeometry width="80" relative="1" as="geometry">
            <mxPoint x="1375" y="1985" as="sourcePoint" />
            <mxPoint x="1583" y="1985" as="targetPoint" />
          </mxGeometry>
        </mxCell>
        <mxCell id="zp3tI751EjAqgCoOAfSL-188" value="message is added to queue" style="shape=note2;boundedLbl=1;whiteSpace=wrap;html=1;size=25;verticalAlign=middle;align=center;fontSize=9;" parent="1" vertex="1">
          <mxGeometry x="1599" y="2012" width="209" height="33" as="geometry" />
        </mxCell>
        <mxCell id="zp3tI751EjAqgCoOAfSL-191" value="step" style="html=1;verticalAlign=bottom;endArrow=block;rounded=0;fontSize=9;fontColor=#000000;exitX=0.93;exitY=0.197;exitDx=0;exitDy=0;exitPerimeter=0;entryX=0.962;entryY=0.261;entryDx=0;entryDy=0;entryPerimeter=0;" parent="1" edge="1">
          <mxGeometry x="0.0921" width="80" relative="1" as="geometry">
            <mxPoint x="1373" y="1923.9950000000001" as="sourcePoint" />
            <mxPoint x="1373.32" y="1951.8350000000003" as="targetPoint" />
            <Array as="points">
              <mxPoint x="1427.7" y="1924.3" />
              <mxPoint x="1427.7" y="1952.3" />
            </Array>
            <mxPoint as="offset" />
          </mxGeometry>
        </mxCell>
        <mxCell id="zp3tI751EjAqgCoOAfSL-192" value="handleMessage(message, sender)" style="html=1;verticalAlign=bottom;endArrow=block;rounded=0;fontSize=9;fontColor=#000000;" parent="1" edge="1">
          <mxGeometry width="80" relative="1" as="geometry">
            <mxPoint x="1373" y="2019" as="sourcePoint" />
            <mxPoint x="1581" y="2019" as="targetPoint" />
          </mxGeometry>
        </mxCell>
        <mxCell id="zp3tI751EjAqgCoOAfSL-193" value="Percepts in Agent base class are set" style="shape=note2;boundedLbl=1;whiteSpace=wrap;html=1;size=25;verticalAlign=middle;align=center;fontSize=9;" parent="1" vertex="1">
          <mxGeometry x="1599" y="1970" width="214" height="33" as="geometry" />
        </mxCell>
        <mxCell id="zp3tI751EjAqgCoOAfSL-195" value="performTask(task, sender)" style="html=1;verticalAlign=bottom;endArrow=block;rounded=0;fontSize=9;fontColor=#000000;" parent="1" edge="1">
          <mxGeometry x="0.0921" width="80" relative="1" as="geometry">
            <mxPoint x="1584" y="2039" as="sourcePoint" />
            <mxPoint x="1582" y="2062" as="targetPoint" />
            <Array as="points">
              <mxPoint x="1520.7" y="2039" />
              <mxPoint x="1520.7" y="2062" />
            </Array>
            <mxPoint as="offset" />
          </mxGeometry>
        </mxCell>
        <mxCell id="zp3tI751EjAqgCoOAfSL-196" value="updatePercepts" style="html=1;verticalAlign=bottom;endArrow=block;rounded=0;fontSize=9;fontColor=#000000;" parent="1" edge="1">
          <mxGeometry x="0.0921" width="80" relative="1" as="geometry">
            <mxPoint x="1585" y="2094" as="sourcePoint" />
            <mxPoint x="1583" y="2117" as="targetPoint" />
            <Array as="points">
              <mxPoint x="1521.7" y="2094" />
              <mxPoint x="1521.7" y="2117" />
            </Array>
            <mxPoint as="offset" />
          </mxGeometry>
        </mxCell>
        <mxCell id="zp3tI751EjAqgCoOAfSL-197" value="setDummyAction" style="html=1;verticalAlign=bottom;endArrow=block;rounded=0;fontSize=9;fontColor=#000000;" parent="1" edge="1">
          <mxGeometry x="0.0921" width="80" relative="1" as="geometry">
            <mxPoint x="1585" y="2147" as="sourcePoint" />
            <mxPoint x="1583" y="2170" as="targetPoint" />
            <Array as="points">
              <mxPoint x="1521.7" y="2147" />
              <mxPoint x="1521.7" y="2170" />
            </Array>
            <mxPoint as="offset" />
          </mxGeometry>
        </mxCell>
        <mxCell id="zp3tI751EjAqgCoOAfSL-198" value="" style="html=1;points=[];perimeter=orthogonalPerimeter;shadow=0;dashed=1;labelBackgroundColor=none;sketch=0;fontSize=9;fontColor=#B3B3B3;gradientColor=none;" parent="1" vertex="1">
          <mxGeometry x="1863" y="2147" width="10" height="90" as="geometry" />
        </mxCell>
        <mxCell id="zp3tI751EjAqgCoOAfSL-199" value="" style="html=1;points=[];perimeter=orthogonalPerimeter;shadow=0;dashed=1;labelBackgroundColor=none;sketch=0;fontSize=9;fontColor=#B3B3B3;gradientColor=none;" parent="1" vertex="1">
          <mxGeometry x="1767" y="2085" width="10" height="49" as="geometry" />
        </mxCell>
        <mxCell id="zp3tI751EjAqgCoOAfSL-200" value="&lt;span style=&quot;color: rgb(0 , 0 , 0)&quot;&gt;&lt;font style=&quot;font-size: 9px&quot;&gt;BdiAgentV1&lt;/font&gt;&lt;/span&gt;" style="html=1;shadow=0;dashed=1;labelBackgroundColor=none;sketch=0;fontSize=9;fontColor=#B3B3B3;gradientColor=none;" parent="1" vertex="1">
          <mxGeometry x="1535" y="1782" width="110" height="50" as="geometry" />
        </mxCell>
        <mxCell id="zp3tI751EjAqgCoOAfSL-201" value="&lt;span style=&quot;color: rgb(0 , 0 , 0)&quot;&gt;&lt;font style=&quot;font-size: 9px&quot;&gt;Intension&lt;/font&gt;&lt;/span&gt;" style="html=1;shadow=0;dashed=1;labelBackgroundColor=none;sketch=0;fontSize=9;fontColor=#B3B3B3;gradientColor=none;" parent="1" vertex="1">
          <mxGeometry x="1815" y="2077" width="110" height="22" as="geometry" />
        </mxCell>
        <mxCell id="zp3tI751EjAqgCoOAfSL-202" value="update(percepts)" style="html=1;verticalAlign=bottom;endArrow=block;rounded=0;fontSize=9;fontColor=#000000;" parent="1" edge="1">
          <mxGeometry width="80" relative="1" as="geometry">
            <mxPoint x="1595" y="2117" as="sourcePoint" />
            <mxPoint x="1764" y="2117" as="targetPoint" />
          </mxGeometry>
        </mxCell>
        <mxCell id="zp3tI751EjAqgCoOAfSL-203" value="setNextAction(a)" style="html=1;verticalAlign=bottom;endArrow=block;rounded=0;fontSize=9;fontColor=#000000;" parent="1" edge="1">
          <mxGeometry x="0.0037" width="80" relative="1" as="geometry">
            <mxPoint x="1594" y="2170" as="sourcePoint" />
            <mxPoint x="1863" y="2170" as="targetPoint" />
            <mxPoint as="offset" />
          </mxGeometry>
        </mxCell>
        <mxCell id="zp3tI751EjAqgCoOAfSL-205" value="while(true)&amp;nbsp; in run()" style="html=1;verticalAlign=bottom;endArrow=block;rounded=0;fontSize=9;fontColor=#000000;" parent="1" edge="1">
          <mxGeometry x="0.0921" width="80" relative="1" as="geometry">
            <mxPoint x="1585" y="2194" as="sourcePoint" />
            <mxPoint x="1583" y="2217" as="targetPoint" />
            <Array as="points">
              <mxPoint x="1521.7" y="2194" />
              <mxPoint x="1521.7" y="2217" />
            </Array>
            <mxPoint as="offset" />
          </mxGeometry>
        </mxCell>
        <mxCell id="zp3tI751EjAqgCoOAfSL-206" value="getNextAction()" style="html=1;verticalAlign=bottom;endArrow=block;rounded=0;fontSize=9;fontColor=#000000;" parent="1" edge="1">
          <mxGeometry x="0.0112" width="80" relative="1" as="geometry">
            <mxPoint x="1595" y="2217" as="sourcePoint" />
            <mxPoint x="1864" y="2217" as="targetPoint" />
            <mxPoint as="offset" />
          </mxGeometry>
        </mxCell>
        <mxCell id="zp3tI751EjAqgCoOAfSL-207" value="Step update and task execution cycle&amp;nbsp;" style="rounded=0;whiteSpace=wrap;html=1;shadow=0;dashed=1;labelBackgroundColor=none;sketch=0;fontSize=14;fontColor=#000000;gradientColor=none;fontStyle=1" parent="1" vertex="1">
          <mxGeometry x="1316" y="1724" width="331" height="41" as="geometry" />
        </mxCell>
        <mxCell id="dxKCeIQAazDfLPVNPwqI-5" value="HinderEnemy" style="swimlane;fontStyle=1;align=center;verticalAlign=top;childLayout=stackLayout;horizontal=1;startSize=26;horizontalStack=0;resizeParent=1;resizeParentMax=0;resizeLast=0;collapsible=1;marginBottom=0;labelBackgroundColor=none;fillColor=#fff2cc;strokeColor=#d6b656;shadow=0;sketch=0;gradientColor=none;swimlaneFillColor=default;" parent="1" vertex="1">
          <mxGeometry x="1311.5" y="1347" width="233" height="86" as="geometry" />
        </mxCell>
        <mxCell id="dxKCeIQAazDfLPVNPwqI-6" value=" " style="text;strokeColor=none;fillColor=none;align=left;verticalAlign=top;spacingLeft=4;spacingRight=4;overflow=hidden;rotatable=0;points=[[0,0.5],[1,0.5]];portConstraint=eastwest;" parent="dxKCeIQAazDfLPVNPwqI-5" vertex="1">
          <mxGeometry y="26" width="233" height="26" as="geometry" />
        </mxCell>
        <mxCell id="dxKCeIQAazDfLPVNPwqI-7" value="" style="line;strokeWidth=1;fillColor=none;align=left;verticalAlign=middle;spacingTop=-1;spacingLeft=3;spacingRight=3;rotatable=0;labelPosition=right;points=[];portConstraint=eastwest;" parent="dxKCeIQAazDfLPVNPwqI-5" vertex="1">
          <mxGeometry y="52" width="233" height="8" as="geometry" />
        </mxCell>
        <mxCell id="dxKCeIQAazDfLPVNPwqI-8" value=" " style="text;strokeColor=none;fillColor=none;align=left;verticalAlign=top;spacingLeft=4;spacingRight=4;overflow=hidden;rotatable=0;points=[[0,0.5],[1,0.5]];portConstraint=eastwest;" parent="dxKCeIQAazDfLPVNPwqI-5" vertex="1">
          <mxGeometry y="60" width="233" height="26" as="geometry" />
        </mxCell>
        <mxCell id="dxKCeIQAazDfLPVNPwqI-9" value="GoGoalZone" style="swimlane;fontStyle=1;align=center;verticalAlign=top;childLayout=stackLayout;horizontal=1;startSize=26;horizontalStack=0;resizeParent=1;resizeParentMax=0;resizeLast=0;collapsible=1;marginBottom=0;labelBackgroundColor=none;fillColor=#fff2cc;strokeColor=#d6b656;shadow=0;sketch=0;gradientColor=none;swimlaneFillColor=default;" parent="1" vertex="1">
          <mxGeometry x="1284.5" y="1380" width="233" height="112" as="geometry" />
        </mxCell>
        <mxCell id="dxKCeIQAazDfLPVNPwqI-10" value=" " style="text;strokeColor=none;fillColor=none;align=left;verticalAlign=top;spacingLeft=4;spacingRight=4;overflow=hidden;rotatable=0;points=[[0,0.5],[1,0.5]];portConstraint=eastwest;" parent="dxKCeIQAazDfLPVNPwqI-9" vertex="1">
          <mxGeometry y="26" width="233" height="26" as="geometry" />
        </mxCell>
        <mxCell id="dxKCeIQAazDfLPVNPwqI-11" value="" style="line;strokeWidth=1;fillColor=none;align=left;verticalAlign=middle;spacingTop=-1;spacingLeft=3;spacingRight=3;rotatable=0;labelPosition=right;points=[];portConstraint=eastwest;" parent="dxKCeIQAazDfLPVNPwqI-9" vertex="1">
          <mxGeometry y="52" width="233" height="34" as="geometry" />
        </mxCell>
        <mxCell id="dxKCeIQAazDfLPVNPwqI-12" value=" " style="text;strokeColor=none;fillColor=none;align=left;verticalAlign=top;spacingLeft=4;spacingRight=4;overflow=hidden;rotatable=0;points=[[0,0.5],[1,0.5]];portConstraint=eastwest;" parent="dxKCeIQAazDfLPVNPwqI-9" vertex="1">
          <mxGeometry y="86" width="233" height="26" as="geometry" />
        </mxCell>
        <mxCell id="dxKCeIQAazDfLPVNPwqI-17" value="RemoveObstacle" style="swimlane;fontStyle=1;align=center;verticalAlign=top;childLayout=stackLayout;horizontal=1;startSize=26;horizontalStack=0;resizeParent=1;resizeParentMax=0;resizeLast=0;collapsible=1;marginBottom=0;labelBackgroundColor=none;fillColor=#fff2cc;strokeColor=#d6b656;shadow=0;sketch=0;gradientColor=none;swimlaneFillColor=default;" parent="1" vertex="1">
          <mxGeometry x="1265.5" y="1416" width="233" height="86" as="geometry" />
        </mxCell>
        <mxCell id="dxKCeIQAazDfLPVNPwqI-18" value=" " style="text;strokeColor=none;fillColor=none;align=left;verticalAlign=top;spacingLeft=4;spacingRight=4;overflow=hidden;rotatable=0;points=[[0,0.5],[1,0.5]];portConstraint=eastwest;" parent="dxKCeIQAazDfLPVNPwqI-17" vertex="1">
          <mxGeometry y="26" width="233" height="26" as="geometry" />
        </mxCell>
        <mxCell id="dxKCeIQAazDfLPVNPwqI-19" value="" style="line;strokeWidth=1;fillColor=none;align=left;verticalAlign=middle;spacingTop=-1;spacingLeft=3;spacingRight=3;rotatable=0;labelPosition=right;points=[];portConstraint=eastwest;" parent="dxKCeIQAazDfLPVNPwqI-17" vertex="1">
          <mxGeometry y="52" width="233" height="8" as="geometry" />
        </mxCell>
        <mxCell id="dxKCeIQAazDfLPVNPwqI-20" value=" " style="text;strokeColor=none;fillColor=none;align=left;verticalAlign=top;spacingLeft=4;spacingRight=4;overflow=hidden;rotatable=0;points=[[0,0.5],[1,0.5]];portConstraint=eastwest;" parent="dxKCeIQAazDfLPVNPwqI-17" vertex="1">
          <mxGeometry y="60" width="233" height="26" as="geometry" />
        </mxCell>
        <mxCell id="dxKCeIQAazDfLPVNPwqI-21" value="AssembleTask" style="swimlane;fontStyle=1;align=center;verticalAlign=top;childLayout=stackLayout;horizontal=1;startSize=26;horizontalStack=0;resizeParent=1;resizeParentMax=0;resizeLast=0;collapsible=1;marginBottom=0;labelBackgroundColor=none;fillColor=#fff2cc;strokeColor=#d6b656;shadow=0;sketch=0;gradientColor=none;swimlaneFillColor=default;" parent="1" vertex="1">
          <mxGeometry x="1234.5" y="1449" width="233" height="86" as="geometry" />
        </mxCell>
        <mxCell id="dxKCeIQAazDfLPVNPwqI-22" value=" " style="text;strokeColor=none;fillColor=none;align=left;verticalAlign=top;spacingLeft=4;spacingRight=4;overflow=hidden;rotatable=0;points=[[0,0.5],[1,0.5]];portConstraint=eastwest;" parent="dxKCeIQAazDfLPVNPwqI-21" vertex="1">
          <mxGeometry y="26" width="233" height="26" as="geometry" />
        </mxCell>
        <mxCell id="dxKCeIQAazDfLPVNPwqI-23" value="" style="line;strokeWidth=1;fillColor=none;align=left;verticalAlign=middle;spacingTop=-1;spacingLeft=3;spacingRight=3;rotatable=0;labelPosition=right;points=[];portConstraint=eastwest;" parent="dxKCeIQAazDfLPVNPwqI-21" vertex="1">
          <mxGeometry y="52" width="233" height="8" as="geometry" />
        </mxCell>
        <mxCell id="dxKCeIQAazDfLPVNPwqI-24" value=" " style="text;strokeColor=none;fillColor=none;align=left;verticalAlign=top;spacingLeft=4;spacingRight=4;overflow=hidden;rotatable=0;points=[[0,0.5],[1,0.5]];portConstraint=eastwest;" parent="dxKCeIQAazDfLPVNPwqI-21" vertex="1">
          <mxGeometry y="60" width="233" height="26" as="geometry" />
        </mxCell>
        <mxCell id="dxKCeIQAazDfLPVNPwqI-25" value="GatherBlocks" style="swimlane;fontStyle=1;align=center;verticalAlign=top;childLayout=stackLayout;horizontal=1;startSize=26;horizontalStack=0;resizeParent=1;resizeParentMax=0;resizeLast=0;collapsible=1;marginBottom=0;labelBackgroundColor=none;fillColor=#fff2cc;strokeColor=#d6b656;shadow=0;sketch=0;gradientColor=none;swimlaneFillColor=default;" parent="1" vertex="1">
          <mxGeometry x="1211.5" y="1481" width="233" height="86" as="geometry" />
        </mxCell>
        <mxCell id="dxKCeIQAazDfLPVNPwqI-26" value=" " style="text;strokeColor=none;fillColor=none;align=left;verticalAlign=top;spacingLeft=4;spacingRight=4;overflow=hidden;rotatable=0;points=[[0,0.5],[1,0.5]];portConstraint=eastwest;" parent="dxKCeIQAazDfLPVNPwqI-25" vertex="1">
          <mxGeometry y="26" width="233" height="26" as="geometry" />
        </mxCell>
        <mxCell id="dxKCeIQAazDfLPVNPwqI-27" value="" style="line;strokeWidth=1;fillColor=none;align=left;verticalAlign=middle;spacingTop=-1;spacingLeft=3;spacingRight=3;rotatable=0;labelPosition=right;points=[];portConstraint=eastwest;" parent="dxKCeIQAazDfLPVNPwqI-25" vertex="1">
          <mxGeometry y="52" width="233" height="8" as="geometry" />
        </mxCell>
        <mxCell id="dxKCeIQAazDfLPVNPwqI-28" value=" " style="text;strokeColor=none;fillColor=none;align=left;verticalAlign=top;spacingLeft=4;spacingRight=4;overflow=hidden;rotatable=0;points=[[0,0.5],[1,0.5]];portConstraint=eastwest;" parent="dxKCeIQAazDfLPVNPwqI-25" vertex="1">
          <mxGeometry y="60" width="233" height="26" as="geometry" />
        </mxCell>
        <mxCell id="dxKCeIQAazDfLPVNPwqI-29" value="ExploreTerritory" style="swimlane;fontStyle=1;align=center;verticalAlign=top;childLayout=stackLayout;horizontal=1;startSize=26;horizontalStack=0;resizeParent=1;resizeParentMax=0;resizeLast=0;collapsible=1;marginBottom=0;labelBackgroundColor=none;fillColor=#fff2cc;strokeColor=#d6b656;shadow=0;sketch=0;gradientColor=none;swimlaneFillColor=default;" parent="1" vertex="1">
          <mxGeometry x="1191" y="1516" width="233" height="86" as="geometry" />
        </mxCell>
        <mxCell id="dxKCeIQAazDfLPVNPwqI-30" value=" " style="text;strokeColor=none;fillColor=none;align=left;verticalAlign=top;spacingLeft=4;spacingRight=4;overflow=hidden;rotatable=0;points=[[0,0.5],[1,0.5]];portConstraint=eastwest;" parent="dxKCeIQAazDfLPVNPwqI-29" vertex="1">
          <mxGeometry y="26" width="233" height="26" as="geometry" />
        </mxCell>
        <mxCell id="dxKCeIQAazDfLPVNPwqI-31" value="" style="line;strokeWidth=1;fillColor=none;align=left;verticalAlign=middle;spacingTop=-1;spacingLeft=3;spacingRight=3;rotatable=0;labelPosition=right;points=[];portConstraint=eastwest;" parent="dxKCeIQAazDfLPVNPwqI-29" vertex="1">
          <mxGeometry y="52" width="233" height="8" as="geometry" />
        </mxCell>
        <mxCell id="dxKCeIQAazDfLPVNPwqI-32" value=" " style="text;strokeColor=none;fillColor=none;align=left;verticalAlign=top;spacingLeft=4;spacingRight=4;overflow=hidden;rotatable=0;points=[[0,0.5],[1,0.5]];portConstraint=eastwest;" parent="dxKCeIQAazDfLPVNPwqI-29" vertex="1">
          <mxGeometry y="60" width="233" height="26" as="geometry" />
        </mxCell>
        <mxCell id="dxKCeIQAazDfLPVNPwqI-34" value="Extends?" style="endArrow=block;endSize=16;endFill=0;html=1;rounded=0;fontSize=9;fontColor=#B3B3B3;entryX=0.231;entryY=0.893;entryDx=0;entryDy=0;entryPerimeter=0;" parent="1" source="dxKCeIQAazDfLPVNPwqI-13" target="BuMgWgZO_NalYsWpBLu5-22" edge="1">
          <mxGeometry width="160" relative="1" as="geometry">
            <mxPoint x="1474" y="1288" as="sourcePoint" />
            <mxPoint x="1626.3093607305937" y="1141" as="targetPoint" />
            <Array as="points" />
          </mxGeometry>
        </mxCell>
        <mxCell id="dxKCeIQAazDfLPVNPwqI-35" value="Plan" style="swimlane;fontStyle=1;align=center;verticalAlign=top;childLayout=stackLayout;horizontal=1;startSize=26;horizontalStack=0;resizeParent=1;resizeParentMax=0;resizeLast=0;collapsible=1;marginBottom=0;labelBackgroundColor=none;fillColor=#fff2cc;strokeColor=#d6b656;shadow=0;sketch=0;gradientColor=none;swimlaneFillColor=default;" parent="1" vertex="1">
          <mxGeometry x="1784.5" y="1145" width="199" height="134" as="geometry" />
        </mxCell>
        <mxCell id="dxKCeIQAazDfLPVNPwqI-64" value="- name : String&#xa;- actions : List&lt;Action&gt;&#xa;- nextAction: Action&#xa;" style="text;strokeColor=none;fillColor=none;align=left;verticalAlign=top;spacingLeft=4;spacingRight=4;overflow=hidden;rotatable=0;points=[[0,0.5],[1,0.5]];portConstraint=eastwest;" parent="dxKCeIQAazDfLPVNPwqI-35" vertex="1">
          <mxGeometry y="26" width="199" height="50" as="geometry" />
        </mxCell>
        <mxCell id="dxKCeIQAazDfLPVNPwqI-37" value="" style="line;strokeWidth=1;fillColor=none;align=left;verticalAlign=middle;spacingTop=-1;spacingLeft=3;spacingRight=3;rotatable=0;labelPosition=right;points=[];portConstraint=eastwest;" parent="dxKCeIQAazDfLPVNPwqI-35" vertex="1">
          <mxGeometry y="76" width="199" height="8" as="geometry" />
        </mxCell>
        <mxCell id="dxKCeIQAazDfLPVNPwqI-65" value="+ getNextAction() : Action&#xa;+ setNextAction(nextAction : Action)&#xa;+ clear()" style="text;strokeColor=none;fillColor=none;align=left;verticalAlign=top;spacingLeft=4;spacingRight=4;overflow=hidden;rotatable=0;points=[[0,0.5],[1,0.5]];portConstraint=eastwest;" parent="dxKCeIQAazDfLPVNPwqI-35" vertex="1">
          <mxGeometry y="84" width="199" height="50" as="geometry" />
        </mxCell>
        <mxCell id="dxKCeIQAazDfLPVNPwqI-46" value="Action" style="swimlane;fontStyle=1;align=center;verticalAlign=top;childLayout=stackLayout;horizontal=1;startSize=26;horizontalStack=0;resizeParent=1;resizeParentMax=0;resizeLast=0;collapsible=1;marginBottom=0;labelBackgroundColor=none;fillColor=#fff2cc;strokeColor=#d6b656;shadow=0;sketch=0;gradientColor=none;swimlaneFillColor=default;" parent="1" vertex="1">
          <mxGeometry x="1798" y="1309" width="166" height="52" as="geometry" />
        </mxCell>
        <mxCell id="dxKCeIQAazDfLPVNPwqI-47" value="- name : String" style="text;strokeColor=none;fillColor=none;align=left;verticalAlign=top;spacingLeft=4;spacingRight=4;overflow=hidden;rotatable=0;points=[[0,0.5],[1,0.5]];portConstraint=eastwest;autosize=1;" parent="dxKCeIQAazDfLPVNPwqI-46" vertex="1">
          <mxGeometry y="26" width="166" height="18" as="geometry" />
        </mxCell>
        <mxCell id="dxKCeIQAazDfLPVNPwqI-48" value="" style="line;strokeWidth=1;fillColor=none;align=left;verticalAlign=middle;spacingTop=-1;spacingLeft=3;spacingRight=3;rotatable=0;labelPosition=right;points=[];portConstraint=eastwest;" parent="dxKCeIQAazDfLPVNPwqI-46" vertex="1">
          <mxGeometry y="44" width="166" height="8" as="geometry" />
        </mxCell>
        <mxCell id="dxKCeIQAazDfLPVNPwqI-50" value="" style="endArrow=none;html=1;rounded=0;exitX=0.5;exitY=0;exitDx=0;exitDy=0;entryX=0.485;entryY=1.04;entryDx=0;entryDy=0;entryPerimeter=0;" parent="1" source="dxKCeIQAazDfLPVNPwqI-46" target="dxKCeIQAazDfLPVNPwqI-65" edge="1">
          <mxGeometry width="50" height="50" relative="1" as="geometry">
            <mxPoint x="2198" y="1221" as="sourcePoint" />
            <mxPoint x="1736" y="1596" as="targetPoint" />
          </mxGeometry>
        </mxCell>
        <mxCell id="dxKCeIQAazDfLPVNPwqI-51" value="Goal" style="swimlane;fontStyle=1;align=center;verticalAlign=top;childLayout=stackLayout;horizontal=1;startSize=26;horizontalStack=0;resizeParent=1;resizeParentMax=0;resizeLast=0;collapsible=1;marginBottom=0;labelBackgroundColor=none;fillColor=#fff2cc;strokeColor=#d6b656;shadow=0;sketch=0;gradientColor=none;swimlaneFillColor=default;" parent="1" vertex="1">
          <mxGeometry x="1616" y="1037" width="188" height="97" as="geometry" />
        </mxCell>
        <mxCell id="zp3tI751EjAqgCoOAfSL-66" value="- name : String&#xa;- int : priority&#xa;- agent : BdiAgent&#xa;- plans : List&lt;Intention&gt;" style="text;strokeColor=none;fillColor=none;align=left;verticalAlign=top;spacingLeft=4;spacingRight=4;overflow=hidden;rotatable=0;points=[[0,0.5],[1,0.5]];portConstraint=eastwest;" parent="dxKCeIQAazDfLPVNPwqI-51" vertex="1">
          <mxGeometry y="26" width="188" height="63" as="geometry" />
        </mxCell>
        <mxCell id="dxKCeIQAazDfLPVNPwqI-53" value="" style="line;strokeWidth=1;fillColor=none;align=left;verticalAlign=middle;spacingTop=-1;spacingLeft=3;spacingRight=3;rotatable=0;labelPosition=right;points=[];portConstraint=eastwest;" parent="dxKCeIQAazDfLPVNPwqI-51" vertex="1">
          <mxGeometry y="89" width="188" height="8" as="geometry" />
        </mxCell>
        <mxCell id="dxKCeIQAazDfLPVNPwqI-57" value="" style="endArrow=none;html=1;rounded=0;entryX=1;entryY=0.5;entryDx=0;entryDy=0;exitX=0.5;exitY=0;exitDx=0;exitDy=0;edgeStyle=orthogonalEdgeStyle;" parent="1" source="dxKCeIQAazDfLPVNPwqI-35" target="zp3tI751EjAqgCoOAfSL-66" edge="1">
          <mxGeometry width="50" height="50" relative="1" as="geometry">
            <mxPoint x="1825" y="1220" as="sourcePoint" />
            <mxPoint x="1699.935" y="1096.9899999999998" as="targetPoint" />
          </mxGeometry>
        </mxCell>
        <mxCell id="SS7VEFHCa6W0pI9FkJkT-2" value="Goals sind Desires, die&amp;nbsp; für einen Agenten in der aktuellen Situation möglich sind (nach local oder group decisions). &lt;br&gt;Das Goal mit der höchsten Priorität (Regeln noch festzulegen) wird dann zur Intention." style="shape=note2;boundedLbl=1;whiteSpace=wrap;html=1;size=25;verticalAlign=top;align=center;" parent="1" vertex="1">
          <mxGeometry x="1524" y="745" width="190" height="136" as="geometry" />
        </mxCell>
        <mxCell id="SS7VEFHCa6W0pI9FkJkT-3" value="Für jedes Goal wird der Plan berechnet (nicht nur für die Intention), da der Plan für die Ermittlung der Priorität wichtig ist." style="shape=note2;boundedLbl=1;whiteSpace=wrap;html=1;size=25;verticalAlign=top;align=center;" parent="1" vertex="1">
          <mxGeometry x="1172" y="712" width="127.5" height="127" as="geometry" />
        </mxCell>
        <mxCell id="SS7VEFHCa6W0pI9FkJkT-4" value="Da der Plan in jedem Step neu aufgebaut wird, ist immer die erste Action der Intention die Action, welche im aktuellen Step an den Scheduler zurückgegeben wird.&amp;nbsp;" style="shape=note2;boundedLbl=1;whiteSpace=wrap;html=1;size=25;verticalAlign=top;align=center;" parent="1" vertex="1">
          <mxGeometry x="1787.25" y="1399" width="187.5" height="112" as="geometry" />
        </mxCell>
        <mxCell id="SS7VEFHCa6W0pI9FkJkT-5" value="&lt;p style=&quot;margin: 4px 0px 0px&quot;&gt;&lt;b&gt;Desires&lt;/b&gt;&lt;/p&gt;&lt;p style=&quot;margin: 4px 0px 0px&quot;&gt;(hart codiert&amp;nbsp;&lt;/p&gt;&lt;p style=&quot;margin: 4px 0px 0px&quot;&gt;in Agent und Supervisor)&lt;/p&gt;&lt;hr size=&quot;1&quot; style=&quot;text-align: left&quot;&gt;Local Decision (Agent)&lt;br style=&quot;padding: 0px ; margin: 0px&quot;&gt;- Clear ausweichen&lt;br style=&quot;padding: 0px ; margin: 0px&quot;&gt;- Gegner behindern&lt;br style=&quot;padding: 0px ; margin: 0px&quot;&gt;- zur Goalzone gehen&lt;br style=&quot;padding: 0px ; margin: 0px&quot;&gt;- Hindernis beseitigen&lt;br style=&quot;padding: 0px ; margin: 0px&quot;&gt;&lt;br style=&quot;padding: 0px ; margin: 0px&quot;&gt;Group Decision (Supervisor)&lt;br style=&quot;padding: 0px ; margin: 0px&quot;&gt;- Task zusammenstellen&lt;br style=&quot;padding: 0px ; margin: 0px&quot;&gt;&amp;nbsp; &amp;nbsp;- Struktur aufbauen&lt;br style=&quot;padding: 0px ; margin: 0px&quot;&gt;&amp;nbsp; &amp;nbsp;- in Goalzone submit&lt;br style=&quot;padding: 0px ; margin: 0px&quot;&gt;&amp;nbsp; &amp;nbsp;...&lt;br style=&quot;padding: 0px ; margin: 0px&quot;&gt;- Blöcke sammeln&lt;br style=&quot;padding: 0px ; margin: 0px&quot;&gt;- Gegend erkunden&lt;br style=&quot;padding: 0px ; margin: 0px&quot;&gt;...&lt;div style=&quot;padding: 0px ; margin: 0px&quot;&gt;&lt;br style=&quot;padding: 0px ; margin: 0px ; text-align: left&quot;&gt;&lt;/div&gt;" style="shape=note2;boundedLbl=1;whiteSpace=wrap;html=1;size=25;verticalAlign=top;align=center;" parent="1" vertex="1">
          <mxGeometry x="1172" y="861" width="177" height="325" as="geometry" />
        </mxCell>
        <mxCell id="BuMgWgZO_NalYsWpBLu5-10" value="&lt;&lt;interface&gt;&gt;&#xa;Intention" style="swimlane;fontStyle=1;align=center;verticalAlign=top;childLayout=stackLayout;horizontal=1;startSize=43;horizontalStack=0;resizeParent=1;resizeParentMax=0;resizeLast=0;collapsible=1;marginBottom=0;labelBackgroundColor=none;fillColor=#fff2cc;strokeColor=#d6b656;shadow=0;sketch=0;gradientColor=none;swimlaneFillColor=default;" parent="1" vertex="1">
          <mxGeometry x="1527.5" y="896" width="192" height="94" as="geometry" />
        </mxCell>
        <mxCell id="BuMgWgZO_NalYsWpBLu5-11" value="" style="line;strokeWidth=1;fillColor=none;align=left;verticalAlign=middle;spacingTop=-1;spacingLeft=3;spacingRight=3;rotatable=0;labelPosition=right;points=[];portConstraint=eastwest;" parent="BuMgWgZO_NalYsWpBLu5-10" vertex="1">
          <mxGeometry y="43" width="192" height="8" as="geometry" />
        </mxCell>
        <mxCell id="BuMgWgZO_NalYsWpBLu5-12" value="+ getNextAction() : Action" style="text;strokeColor=none;fillColor=none;align=left;verticalAlign=top;spacingLeft=4;spacingRight=4;overflow=hidden;rotatable=0;points=[[0,0.5],[1,0.5]];portConstraint=eastwest;autosize=1;" parent="BuMgWgZO_NalYsWpBLu5-10" vertex="1">
          <mxGeometry y="51" width="192" height="18" as="geometry" />
        </mxCell>
        <mxCell id="BuMgWgZO_NalYsWpBLu5-17" value="+ getAllActions() : List&lt;Action&gt;" style="text;strokeColor=none;fillColor=none;align=left;verticalAlign=top;spacingLeft=4;spacingRight=4;overflow=hidden;rotatable=0;points=[[0,0.5],[1,0.5]];portConstraint=eastwest;autosize=1;" parent="BuMgWgZO_NalYsWpBLu5-10" vertex="1">
          <mxGeometry y="69" width="192" height="25" as="geometry" />
        </mxCell>
        <mxCell id="BuMgWgZO_NalYsWpBLu5-15" value="" style="endArrow=block;dashed=1;endFill=0;endSize=12;html=1;rounded=0;fontSize=9;fontColor=#B3B3B3;edgeStyle=orthogonalEdgeStyle;" parent="1" source="dxKCeIQAazDfLPVNPwqI-35" target="BuMgWgZO_NalYsWpBLu5-10" edge="1">
          <mxGeometry width="160" relative="1" as="geometry">
            <mxPoint x="1655.0285714285715" y="1028" as="sourcePoint" />
            <mxPoint x="1655.0285714285715" y="972" as="targetPoint" />
            <Array as="points">
              <mxPoint x="1891" y="1020" />
              <mxPoint x="1686" y="1020" />
            </Array>
          </mxGeometry>
        </mxCell>
        <mxCell id="BuMgWgZO_NalYsWpBLu5-20" value="SubGoal" style="swimlane;fontStyle=1;align=center;verticalAlign=top;childLayout=stackLayout;horizontal=1;startSize=26;horizontalStack=0;resizeParent=1;resizeParentMax=0;resizeLast=0;collapsible=1;marginBottom=0;labelBackgroundColor=none;fillColor=#fff2cc;strokeColor=#d6b656;shadow=0;sketch=0;gradientColor=none;swimlaneFillColor=default;" parent="1" vertex="1">
          <mxGeometry x="1541" y="1203" width="183" height="34" as="geometry" />
        </mxCell>
        <mxCell id="BuMgWgZO_NalYsWpBLu5-22" value="" style="line;strokeWidth=1;fillColor=none;align=left;verticalAlign=middle;spacingTop=-1;spacingLeft=3;spacingRight=3;rotatable=0;labelPosition=right;points=[];portConstraint=eastwest;" parent="BuMgWgZO_NalYsWpBLu5-20" vertex="1">
          <mxGeometry y="26" width="183" height="8" as="geometry" />
        </mxCell>
        <mxCell id="BuMgWgZO_NalYsWpBLu5-25" value="Extends" style="endArrow=block;endSize=16;endFill=0;html=1;rounded=0;fontSize=9;fontColor=#B3B3B3;edgeStyle=orthogonalEdgeStyle;" parent="1" source="BuMgWgZO_NalYsWpBLu5-20" target="dxKCeIQAazDfLPVNPwqI-51" edge="1">
          <mxGeometry width="160" relative="1" as="geometry">
            <mxPoint x="1786.9950168350167" y="1105" as="sourcePoint" />
            <mxPoint x="1787.0488888888892" y="1073" as="targetPoint" />
            <Array as="points">
              <mxPoint x="1639" y="1163" />
              <mxPoint x="1639" y="1163" />
            </Array>
          </mxGeometry>
        </mxCell>
        <mxCell id="BuMgWgZO_NalYsWpBLu5-26" value="" style="endArrow=block;dashed=1;endFill=0;endSize=12;html=1;rounded=0;fontSize=9;fontColor=#B3B3B3;edgeStyle=orthogonalEdgeStyle;" parent="1" source="BuMgWgZO_NalYsWpBLu5-20" target="BuMgWgZO_NalYsWpBLu5-10" edge="1">
          <mxGeometry width="160" relative="1" as="geometry">
            <mxPoint x="1654" y="1018" as="sourcePoint" />
            <mxPoint x="1654" y="981.9999999999998" as="targetPoint" />
            <Array as="points">
              <mxPoint x="1603" y="1033" />
              <mxPoint x="1603" y="1033" />
            </Array>
          </mxGeometry>
        </mxCell>
        <mxCell id="BuMgWgZO_NalYsWpBLu5-27" value="" style="endArrow=none;html=1;rounded=0;" parent="1" source="dxKCeIQAazDfLPVNPwqI-35" target="BuMgWgZO_NalYsWpBLu5-20" edge="1">
          <mxGeometry width="50" height="50" relative="1" as="geometry">
            <mxPoint x="1894" y="1155" as="sourcePoint" />
            <mxPoint x="1845" y="1084" as="targetPoint" />
            <Array as="points" />
          </mxGeometry>
        </mxCell>
        <mxCell id="BuMgWgZO_NalYsWpBLu5-29" value="&lt;&lt;Singelton&gt;&gt;&#xa;Navi" style="swimlane;fontStyle=1;align=center;verticalAlign=top;childLayout=stackLayout;horizontal=1;startSize=42;horizontalStack=0;resizeParent=1;resizeParentMax=0;resizeLast=0;collapsible=1;marginBottom=0;labelBackgroundColor=none;fillColor=#fff2cc;strokeColor=#d6b656;shadow=0;sketch=0;gradientColor=none;swimlaneFillColor=default;spacingBottom=0;" parent="1" vertex="1">
          <mxGeometry x="2616.5" y="836" width="316" height="179" as="geometry" />
        </mxCell>
        <mxCell id="BuMgWgZO_NalYsWpBLu5-32" value="" style="line;strokeWidth=1;fillColor=none;align=left;verticalAlign=middle;spacingTop=-1;spacingLeft=3;spacingRight=3;rotatable=0;labelPosition=right;points=[];portConstraint=eastwest;" parent="BuMgWgZO_NalYsWpBLu5-29" vertex="1">
          <mxGeometry y="42" width="316" height="8" as="geometry" />
        </mxCell>
        <mxCell id="BuMgWgZO_NalYsWpBLu5-36" value="+ getInstance(agentName : String) : Navi" style="text;strokeColor=none;fillColor=none;align=left;verticalAlign=top;spacingLeft=4;spacingRight=4;overflow=hidden;rotatable=0;points=[[0,0.5],[1,0.5]];portConstraint=eastwest;fontStyle=4;autosize=1;" parent="BuMgWgZO_NalYsWpBLu5-29" vertex="1">
          <mxGeometry y="50" width="316" height="18" as="geometry" />
        </mxCell>
        <mxCell id="BuMgWgZO_NalYsWpBLu5-40" value="+ updateMap(reports: CellReport[])" style="text;strokeColor=none;fillColor=none;align=left;verticalAlign=top;spacingLeft=4;spacingRight=4;overflow=hidden;rotatable=0;points=[[0,0.5],[1,0.5]];portConstraint=eastwest;autosize=1;" parent="BuMgWgZO_NalYsWpBLu5-29" vertex="1">
          <mxGeometry y="68" width="316" height="18" as="geometry" />
        </mxCell>
        <mxCell id="2iAghfznZt9czDPORs0B-2" value="+ getPathToRoleZone() : List&lt;Action&gt;" style="text;strokeColor=none;fillColor=none;align=left;verticalAlign=top;spacingLeft=4;spacingRight=4;overflow=hidden;rotatable=0;points=[[0,0.5],[1,0.5]];portConstraint=eastwest;autosize=1;" parent="BuMgWgZO_NalYsWpBLu5-29" vertex="1">
          <mxGeometry y="86" width="316" height="18" as="geometry" />
        </mxCell>
        <mxCell id="2iAghfznZt9czDPORs0B-1" value="+ getPathToGoalZone() : List&lt;Action&gt;" style="text;strokeColor=none;fillColor=none;align=left;verticalAlign=top;spacingLeft=4;spacingRight=4;overflow=hidden;rotatable=0;points=[[0,0.5],[1,0.5]];portConstraint=eastwest;autosize=1;" parent="BuMgWgZO_NalYsWpBLu5-29" vertex="1">
          <mxGeometry y="104" width="316" height="18" as="geometry" />
        </mxCell>
        <mxCell id="2iAghfznZt9czDPORs0B-3" value="+ getPathToDispenser(blockType : String) : &#xa;List&lt;Action&gt;" style="text;strokeColor=none;fillColor=none;align=left;verticalAlign=top;spacingLeft=4;spacingRight=4;overflow=hidden;rotatable=0;points=[[0,0.5],[1,0.5]];portConstraint=eastwest;autosize=1;" parent="BuMgWgZO_NalYsWpBLu5-29" vertex="1">
          <mxGeometry y="122" width="316" height="32" as="geometry" />
        </mxCell>
        <mxCell id="2iAghfznZt9czDPORs0B-4" value="+ getPathToTaskBoard() : List&lt;Action&gt;" style="text;strokeColor=none;fillColor=none;align=left;verticalAlign=top;spacingLeft=4;spacingRight=4;overflow=hidden;rotatable=0;points=[[0,0.5],[1,0.5]];portConstraint=eastwest;autosize=1;spacingBottom=0;" parent="BuMgWgZO_NalYsWpBLu5-29" vertex="1">
          <mxGeometry y="154" width="316" height="25" as="geometry" />
        </mxCell>
        <mxCell id="BuMgWgZO_NalYsWpBLu5-39" value="Access via static class method getInstance()" style="shape=note2;boundedLbl=1;whiteSpace=wrap;html=1;size=25;verticalAlign=middle;align=center;" parent="1" vertex="1">
          <mxGeometry x="2953" y="839" width="150" height="70" as="geometry" />
        </mxCell>
        <mxCell id="BuMgWgZO_NalYsWpBLu5-49" value="" style="endArrow=none;html=1;rounded=0;exitX=0.959;exitY=-0.001;exitDx=0;exitDy=0;exitPerimeter=0;" parent="1" source="dxKCeIQAazDfLPVNPwqI-13" target="BuMgWgZO_NalYsWpBLu5-20" edge="1">
          <mxGeometry width="50" height="50" relative="1" as="geometry">
            <mxPoint x="1794.5" y="1220.1226415094338" as="sourcePoint" />
            <mxPoint x="1720.5" y="1218.7264150943397" as="targetPoint" />
            <Array as="points" />
          </mxGeometry>
        </mxCell>
        <mxCell id="BuMgWgZO_NalYsWpBLu5-50" value="GameMap" style="swimlane;fontStyle=1;align=center;verticalAlign=top;childLayout=stackLayout;horizontal=1;startSize=26;horizontalStack=0;resizeParent=1;resizeParentMax=0;resizeLast=0;collapsible=1;marginBottom=0;labelBackgroundColor=none;fillColor=#fff2cc;strokeColor=#d6b656;shadow=0;sketch=0;gradientColor=none;swimlaneFillColor=default;" parent="1" vertex="1">
          <mxGeometry x="2636.75" y="1085" width="275.5" height="60" as="geometry" />
        </mxCell>
        <mxCell id="BuMgWgZO_NalYsWpBLu5-56" value="" style="line;strokeWidth=1;fillColor=none;align=left;verticalAlign=middle;spacingTop=-1;spacingLeft=3;spacingRight=3;rotatable=0;labelPosition=right;points=[];portConstraint=eastwest;" parent="BuMgWgZO_NalYsWpBLu5-50" vertex="1">
          <mxGeometry y="26" width="275.5" height="8" as="geometry" />
        </mxCell>
        <mxCell id="BuMgWgZO_NalYsWpBLu5-57" value=" " style="text;strokeColor=none;fillColor=none;align=left;verticalAlign=top;spacingLeft=4;spacingRight=4;overflow=hidden;rotatable=0;points=[[0,0.5],[1,0.5]];portConstraint=eastwest;" parent="BuMgWgZO_NalYsWpBLu5-50" vertex="1">
          <mxGeometry y="34" width="275.5" height="26" as="geometry" />
        </mxCell>
        <mxCell id="BuMgWgZO_NalYsWpBLu5-59" value="" style="endArrow=none;html=1;rounded=0;" parent="1" source="BuMgWgZO_NalYsWpBLu5-50" target="BuMgWgZO_NalYsWpBLu5-29" edge="1">
          <mxGeometry width="50" height="50" relative="1" as="geometry">
            <mxPoint x="2740" y="986" as="sourcePoint" />
            <mxPoint x="2786.6333223181073" y="1154" as="targetPoint" />
            <Array as="points" />
          </mxGeometry>
        </mxCell>
        <mxCell id="2iAghfznZt9czDPORs0B-10" value="getPathTo... return list of Actions to target --&amp;gt; length of list equals the number of steps needed to reach goal" style="shape=note2;boundedLbl=1;whiteSpace=wrap;html=1;size=25;verticalAlign=middle;align=center;" parent="1" vertex="1">
          <mxGeometry x="2959" y="937" width="150" height="78" as="geometry" />
        </mxCell>
      </root>
    </mxGraphModel>
  </diagram>
</mxfile>
